<svg width="25" height="25" viewBox="0 0 25 25" fill="none" xmlns="http://www.w3.org/2000/svg">
<path d="M25 13.1729C24.9261 13.7211 24.8831 14.2754 24.7734 14.8169C24.0418 18.4298 22.1203 21.2344 18.9839 23.1754C17.477 24.1078 15.8274 24.6772 14.062 24.901C13.27 25.0017 12.7123 24.7119 12.5405 24.0133C12.3308 23.1608 12.7246 22.3648 13.661 22.2463C17.9603 21.7003 21.2667 18.602 22.1271 14.3352C22.2238 13.8564 22.2484 13.367 22.2708 12.8759C22.3301 11.5944 22.1405 10.3604 21.7064 9.15726C21.3014 8.03463 20.6967 7.03449 19.9287 6.12106C19.0248 5.04653 17.9301 4.22875 16.6693 3.63639C15.7502 3.20456 14.7881 2.89635 13.7667 2.79511C13.3348 2.7526 12.9047 2.68604 12.4706 2.69275C10.0396 2.72911 7.89831 3.53346 6.0412 5.10806C4.94147 6.03995 4.14996 7.19391 3.52962 8.47876C3.5257 8.48715 3.5257 8.49722 3.52235 8.50561C3.34391 8.91506 3.35286 8.92848 3.79644 8.92904C3.98215 8.92904 4.16898 8.92121 4.35413 8.93296C4.47216 8.94023 4.60697 8.9654 4.63382 9.10916C4.66123 9.25683 4.6506 9.38884 4.4923 9.49344C3.1705 10.366 1.85486 11.2481 0.535862 12.1258C0.428462 12.1974 0.309876 12.2768 0.176745 12.2024C0.033546 12.123 -0.00784749 11.9899 0.000543086 11.8243C0.0704646 10.4561 0.371407 9.13936 0.870366 7.86626C1.36597 6.60155 2.05344 5.44312 2.93724 4.41893C4.85869 2.19324 7.26846 0.784773 10.1615 0.21982C10.9749 0.0609624 11.7955 -0.0134324 12.6228 0.00222968C14.2052 0.0324351 15.7346 0.328895 17.2012 0.931885C18.4106 1.42915 19.5254 2.08584 20.5267 2.92768C21.6605 3.88083 22.5896 5.0057 23.3291 6.29111C24.1503 7.71915 24.6554 9.25179 24.8853 10.8773C24.9301 11.195 24.9334 11.5183 25 11.8338V13.1729Z" fill="black"/>
<path d="M0.00952595 19.6156C0.00952595 18.0914 0.00952595 16.5671 0.00952595 15.0423C0.00952595 14.4555 0.170625 14.2916 0.746778 14.2916C0.858093 14.2916 0.969967 14.2916 1.08128 14.2916C1.60933 14.2922 1.78889 14.4678 1.78889 14.988C1.78889 16.3081 1.78889 17.6276 1.78889 18.9477C1.78889 20.7047 1.78889 22.4611 1.78889 24.218C1.78889 24.8434 1.63786 24.9966 1.02367 24.9972C0.912352 24.9972 0.800478 24.9972 0.689163 24.9972C0.200831 24.9955 0.0100853 24.8093 0.00952595 24.3282C0.00896658 22.7575 0.00952595 21.1863 0.00952595 19.6156Z" fill="black"/>
<path d="M10.713 17.3222C10.6974 15.9462 9.78896 14.7732 8.46661 14.4029C7.83676 14.2267 7.19236 14.2871 6.55468 14.2972C4.93753 14.3229 3.60063 15.6626 3.58385 17.2814C3.56763 18.861 3.56987 20.4412 3.58385 22.0208C3.59504 23.2436 4.39886 24.3439 5.53718 24.7886C6.20171 25.0481 6.88862 24.995 7.57329 24.9944C9.37782 24.9933 10.7091 23.6648 10.7147 21.8659C10.717 21.1225 10.7147 20.3791 10.7147 19.6352C10.7147 18.8638 10.7214 18.0925 10.713 17.3211V17.3222ZM8.93145 21.4078C8.92753 22.4275 8.13266 23.2207 7.13195 23.2145C6.14801 23.2084 5.36825 22.413 5.36265 21.4061C5.3593 20.8115 5.3621 20.2169 5.3621 19.6223C5.3621 19.0372 5.35874 18.4516 5.36265 17.8665C5.36993 16.8647 6.16032 16.0737 7.14761 16.0743C8.13602 16.0754 8.92585 16.8641 8.93089 17.8682C8.93648 19.0479 8.93592 20.2275 8.93089 21.4078H8.93145Z" fill="black"/>
</svg>
