<svg width="19" height="14" viewBox="0 0 19 14" fill="none" xmlns="http://www.w3.org/2000/svg">
<g clip-path="url(#clip0_4_177)">
<path d="M6.35018 0C5.94309 0.0777639 5.63167 0.305178 5.34282 0.595888C3.73519 2.21582 2.13253 3.84117 0.498268 5.43398C-0.166536 6.08186 -0.166536 7.07425 0.498268 7.72304C2.17992 9.36376 3.82456 11.0429 5.49041 12.6999C6.29648 13.5015 7.60127 13.1972 7.94337 12.1316C8.12526 11.5651 7.9876 11.0624 7.57238 10.6428C6.77488 9.83713 5.97062 9.03824 5.16951 8.23619C5.11761 8.18419 5.06796 8.12949 4.9795 8.0359H5.28144C10.641 8.0359 11.939 8.02686 17.2985 8.04494C18.1452 8.04766 18.7098 7.73434 19 6.93907V6.21794C18.7098 5.42403 18.1479 5.1089 17.3008 5.11207C11.9367 5.13015 10.6346 5.12156 5.27061 5.12021C5.18892 5.12021 5.0991 5.14553 4.9768 5.06505C5.05668 5.00401 5.12302 4.96513 5.17538 4.91269C5.9828 4.10747 6.79384 3.30542 7.59314 2.49206C8.18438 1.89029 8.15595 0.974309 7.55027 0.397862C7.3246 0.183107 7.04704 0.0795723 6.75548 0.000904231H6.35018V0Z" fill="black"/>
</g>
<defs>
<clipPath id="clip0_4_177">
<rect width="19" height="13.1538" fill="white" transform="matrix(-1 0 0 1 19 0)"/>
</clipPath>
</defs>
</svg>
