<svg width="26" height="24" viewBox="0 0 26 24" fill="none" xmlns="http://www.w3.org/2000/svg">
<path d="M-0.000225067 15.7449V16.4943C0.0832214 16.5945 0.0760975 16.7246 0.118837 16.8383C0.844919 18.7522 1.55472 20.6722 2.30166 22.5777C2.75451 23.7327 4.00976 24.2734 5.20242 23.8633C6.14271 23.5404 7.07588 23.197 8.00956 22.857C8.50362 22.6773 8.68171 22.2908 8.5026 21.8012C8.23395 21.0667 7.9597 20.3343 7.689 19.6008C7.49413 19.0732 7.30078 18.545 7.09827 17.9943C7.55569 17.9943 7.97852 17.9903 8.40135 17.9958C8.74327 18.0003 8.98292 17.8471 9.13506 17.5552C9.29686 17.2448 9.45002 16.9299 9.61284 16.6195C9.63879 16.5699 9.63828 16.4818 9.73852 16.4893C10.0647 17.7705 10.3903 19.0511 10.717 20.3313C10.8309 20.7774 11.1016 21.0021 11.5102 20.9936C11.8969 20.9851 12.1686 20.7443 12.246 20.3042C12.451 19.1422 12.6433 17.9777 12.8453 16.8152C12.8927 16.5424 12.9095 16.2615 13.025 15.9376C13.2784 17.4265 13.5216 18.8514 13.7622 20.2757C13.8355 20.7078 14.0955 20.9711 14.4781 20.9911C14.9076 21.0137 15.1706 20.8169 15.2877 20.3648C15.5935 19.1823 15.8921 17.9983 16.1984 16.8157C16.2269 16.7056 16.2142 16.5734 16.3292 16.4718C16.5088 16.8228 16.6854 17.1532 16.8477 17.4906C17.0141 17.8361 17.2741 18.0103 17.6694 17.9968C17.9991 17.9858 18.3299 18.0048 18.6596 17.9908C18.8733 17.9818 18.9181 18.0278 18.8387 18.2366C18.3955 19.4031 17.9651 20.5746 17.5321 21.7446C17.3255 22.3028 17.5076 22.6843 18.0699 22.8851C18.7517 23.1289 19.4315 23.3797 20.1158 23.617C20.5203 23.7572 20.9121 23.95 21.3477 23.983C22.4747 24.0686 23.3651 23.5144 23.762 22.47C24.4591 20.6347 25.147 18.7958 25.8364 16.9579C25.9214 16.7316 25.9886 16.4998 25.9972 16.256C26.0369 15.1671 25.437 14.2985 24.3807 13.9581C24.1512 13.884 24.1105 13.8003 24.1645 13.5761C24.5186 12.1062 24.5374 10.6252 24.2433 9.14484C23.731 6.5635 22.464 4.40121 20.4267 2.69951C17.8892 0.579773 14.9361 -0.278335 11.6379 0.0786257C9.52532 0.307421 7.59895 1.0689 5.96107 2.40713C2.379 5.33341 0.972122 9.06173 1.85492 13.5861C1.89766 13.8059 1.86967 13.89 1.64579 13.954C0.896816 14.1683 0.395634 14.656 0.123417 15.3724C0.0771141 15.4945 0.040987 15.6212 0.000282288 15.7454L-0.000225067 15.7449ZM14.7112 16.4368C14.6979 16.4368 14.6852 16.4378 14.672 16.4383C14.6216 16.1539 14.5702 15.8695 14.5214 15.5847C14.2685 14.1022 14.0197 12.6193 13.7612 11.1374C13.6915 10.7379 13.3933 10.4991 13.0066 10.5001C12.6245 10.5006 12.3172 10.7489 12.2495 11.1414C12.0221 12.4596 11.8033 13.7793 11.5804 15.0985C11.5072 15.5321 11.4313 15.9656 11.355 16.4067C11.2787 16.3727 11.2797 16.3286 11.2701 16.2891C11.0854 15.5646 10.8986 14.8407 10.716 14.1153C10.6697 13.9315 10.5852 13.7738 10.4331 13.6557C10.0336 13.3468 9.49734 13.4834 9.24802 13.9676C8.84656 14.7456 8.4507 15.5261 8.06044 16.3101C7.99226 16.4468 7.91695 16.5073 7.75515 16.5003C7.42595 16.4863 7.09471 16.4838 6.7655 16.5008C6.5864 16.5103 6.51517 16.4418 6.4592 16.2866C6.12236 15.3564 5.77738 14.4287 5.43291 13.501C5.24669 12.9993 4.8605 12.8191 4.3471 12.9933C4.02248 13.1034 3.69989 13.2201 3.36814 13.3368C3.1061 12.2313 3.03792 11.1379 3.18751 10.0265C3.48924 7.78458 4.4743 5.88462 6.09183 4.28856C6.22005 4.1619 6.28366 4.19494 6.39 4.30108C6.87236 4.7797 7.36031 5.25381 7.84979 5.72592C8.20952 6.07337 8.54432 6.0944 8.96003 5.80502C11.4186 4.09381 14.5738 4.09181 17.0502 5.80102C17.4863 6.10191 17.8144 6.07387 18.2001 5.69838C18.6754 5.23579 19.1521 4.77469 19.6192 4.30458C19.7342 4.18893 19.7978 4.1609 19.9306 4.29307C20.3779 4.73864 20.7915 5.20975 21.1538 5.72442C22.1938 7.20032 22.7678 8.83894 22.8965 10.6273C22.9586 11.4869 22.8726 12.338 22.695 13.1816C22.6686 13.3062 22.6187 13.3413 22.4905 13.2897C22.2488 13.1926 22.0005 13.11 21.7547 13.0218C21.1487 12.8046 20.7839 12.9698 20.5651 13.5605C20.2273 14.4732 19.8858 15.3844 19.5546 16.2996C19.5012 16.4468 19.435 16.5078 19.2692 16.5008C18.9313 16.4868 18.5924 16.4893 18.2541 16.4998C18.106 16.5043 18.0317 16.4543 17.9666 16.3231C17.5809 15.5466 17.1861 14.7746 16.7917 14.0026C16.5979 13.6236 16.3068 13.4549 15.9445 13.5025C15.6164 13.5455 15.3879 13.7798 15.2877 14.1743C15.0958 14.9288 14.9035 15.6828 14.7112 16.4373V16.4368Z" fill="#B2B2B2"/>
</svg>
