<svg width="36" height="38" viewBox="0 0 36 38" fill="none" xmlns="http://www.w3.org/2000/svg">
<path d="M20.6254 2.32279C18.7445 2.32279 17.3587 2.50261 15.8933 3.68168C14.2184 5.02927 12.4699 8.82141 11.7965 10.2075C11.6783 10.4517 11.6676 10.3049 10.2526 9.75136C9.84376 9.59138 9.58089 9.55352 9.02952 9.3279C8.92969 9.2873 9.20598 8.74478 9.24323 8.67334C11.9244 3.60535 13.3587 0.720876 19.2684 1.15593C21.9856 1.3559 26.744 2.55787 29.524 4.47149C32.632 6.61073 31.398 11.9492 30.5114 15.5453C30.4808 15.6675 30.4909 15.6959 30.603 15.7591C33.5009 17.4181 33.133 17.9401 33.2804 17.2599C33.7045 15.302 34.4226 12.6438 34.2296 10.0875C34.055 7.7727 33.2221 6.66233 32.4283 5.74856C29.7179 2.6345 20.8504 0.160039 16.7545 0.452822C13.1193 0.712633 11.2875 3.18282 8.26108 9.11847C7.77596 10.0698 7.79275 9.58375 9.15103 10.0985C9.8404 10.3598 11.5199 10.9979 12.0999 11.4522C15.3691 14.0112 14.1903 21.6492 9.48869 24.5254C7.38212 25.8141 5.51521 25.0979 3.28529 24.2452C3.0148 24.1417 2.88596 24.0147 2.88657 24.1444C2.91191 29.0985 4.17402 29.2295 8.90099 31.4106C9.93199 31.8869 9.8578 31.893 9.97137 31.7727C10.2196 31.5187 10.5249 31.3278 10.8616 31.2158C11.1987 31.1035 11.5574 31.0735 11.9082 31.1282C12.861 31.2381 14.6938 32.0685 15.5413 32.5149C17.4341 33.5098 18.1898 33.5895 18.3922 34.5085C18.7405 36.0918 17.4497 38.0005 16.2047 37.9733C15.4005 37.9559 16.0075 38.0216 13.8233 37.0748C12.767 36.6169 10.7746 35.7037 9.90207 34.953C8.97457 34.1549 9.28445 33.417 9.07776 33.3099C4.60755 30.9926 -0.15361 30.5725 0.865177 22.5917C0.934786 22.0452 0.600483 22.1762 0.231375 20.7092C-1.04722 15.629 3.20042 9.1316 7.39097 9.67564C7.72131 9.71838 10.0901 3.32051 13.5559 0.951681C16.3647 -0.968963 22.3073 0.385351 26.2967 1.7876C29.7087 2.98682 32.0684 4.28404 33.5381 6.32131C35.7479 9.38469 34.5297 14.2332 33.7518 17.8989C33.6389 18.4304 35.529 19.1958 35.3003 22.0815C35.1849 23.5238 34.8384 24.9385 34.2742 26.2708C33.252 28.556 31.4917 31.3883 28.9946 31.5709C27.2969 31.6948 23.7835 31.2045 22.5903 30.1146C18.731 26.5887 22.213 15.3735 28.003 14.8074C28.4051 14.7745 28.8093 14.8386 29.1812 14.9949C29.7918 15.2358 29.8715 15.4745 29.9179 15.2947C30.435 13.295 31.1491 10.0454 30.9031 7.90185C30.7987 6.87234 30.3398 5.9111 29.6046 5.18284C28.7742 4.34815 25.2214 2.68518 22.6905 2.4217C22.0051 2.34419 21.3151 2.31116 20.6254 2.32279ZM33.2008 19.346C33.8541 19.165 33.8895 19.3271 33.9112 19.2544C33.7631 19.0542 33.598 18.867 33.4175 18.6951C32.6543 17.9529 32.5477 17.7618 30.6741 16.6157C30.2021 16.3269 27.5759 18.0812 26.1346 21.6532C25.1921 23.9896 24.6859 27.1181 25.724 29.4011C26.3001 30.6687 26.203 30.6962 27.6599 30.865C28.4072 30.9517 29.2108 31.0702 29.8986 30.749C33.9686 28.8488 36.3246 19.5048 33.6584 19.7222C31.674 19.8843 29.0963 25.079 29.6895 28.6397C29.7017 28.6754 29.7063 28.7136 29.7026 28.7511C29.6993 28.789 29.688 28.8256 29.6694 28.8586C29.6507 28.8915 29.6257 28.9202 29.5952 28.9431C29.5649 28.9657 29.5301 28.9816 29.4932 28.9902C29.4562 28.9984 29.4181 28.9987 29.3808 28.9914C29.3436 28.9841 29.3085 28.9688 29.2777 28.9471C29.2468 28.9251 29.2209 28.897 29.2013 28.8647C29.1821 28.832 29.1699 28.7957 29.1653 28.7581C28.4585 25.6636 30.9315 19.9743 33.2005 19.346H33.2008ZM0.766871 20.4482C1.02119 21.5369 1.62171 22.6228 2.4564 23.1186C2.6924 23.2588 3.92184 23.9411 4.19448 23.9213C3.81407 23.4361 3.51552 22.8921 3.31063 22.3108C2.29276 19.2212 3.40039 15.3948 5.52131 12.9918C7.56164 10.6801 9.3565 10.8242 9.09089 10.6926C4.21005 8.29721 -0.418305 15.3741 0.766566 20.4482H0.766871ZM6.29433 22.3572C7.62483 22.3459 9.14462 20.3517 9.54029 19.2297C10.074 17.7163 10.523 16.5067 9.9732 15.0776C9.8291 14.7207 9.56441 14.4258 9.22552 14.2435C8.88664 14.0613 8.49463 14.0033 8.11759 14.0796C7.62911 14.1923 7.55767 14.3269 7.23588 14.6945C4.67868 17.6174 4.90552 22.3691 6.29403 22.3572H6.29433ZM12.1763 16.3819C12.1872 14.5919 11.3944 12.8553 9.67615 13.1191C9.23804 13.2061 8.82069 13.3774 8.44792 13.6235C8.5734 13.7053 9.6276 13.4403 10.3103 14.6847C11.5418 16.9271 9.85963 21.3262 7.28015 22.5065C6.97402 22.6347 6.65248 22.7226 6.32364 22.7678C6.17099 22.817 6.76877 23.1779 7.31251 23.2243C9.46244 23.4068 12.154 19.8995 12.1759 16.3819H12.1763ZM1.47547 26.9037C2.30589 30.1985 5.17663 30.8327 9.25575 32.7832C9.35558 32.8311 9.34031 32.7847 9.57601 32.3207C9.66912 32.1375 9.72469 32.3512 6.68939 30.8833C3.71363 29.4423 2.71011 29.0665 2.41916 25.1058C2.31627 23.7088 2.57181 23.8996 2.25368 23.7066C1.50265 23.2526 1.29748 22.7544 1.26695 22.9812C1.06921 24.2895 1.14007 25.6239 1.47517 26.9037H1.47547ZM17.719 34.2276C17.5953 34.1189 17.4372 34.0575 17.2726 34.0551C17.1081 34.0527 16.9481 34.1088 16.8211 34.2135C15.4366 35.1117 15.3862 37.4803 16.252 37.4946C17.4695 37.5151 18.4618 35.0788 17.7187 34.2276H17.719Z" fill="black"/>
</svg>
