<svg width="302" height="298" viewBox="0 0 302 298" fill="none" xmlns="http://www.w3.org/2000/svg">
<path d="M162.897 182.565C162.484 177.605 162.331 172.627 162.439 167.651C162.439 167.237 161.839 167.126 161.791 167.651C161.275 172.638 161.328 177.669 161.949 182.644C161.96 182.771 162.02 182.888 162.116 182.97C162.212 183.052 162.337 183.092 162.463 183.082C162.589 183.071 162.705 183.011 162.787 182.914C162.868 182.817 162.908 182.691 162.897 182.565ZM155.74 180.705C155.769 180.769 155.815 180.824 155.874 180.862C155.933 180.901 156.002 180.921 156.072 180.921C156.142 180.921 156.211 180.901 156.27 180.862C156.328 180.824 156.375 180.769 156.404 180.705C156.182 175.696 155.977 170.672 155.756 165.647C155.756 165.563 155.723 165.482 155.663 165.422C155.604 165.363 155.524 165.329 155.44 165.329C155.356 165.329 155.276 165.363 155.216 165.422C155.157 165.482 155.124 165.563 155.124 165.647C154.913 169.441 154.955 173.244 155.25 177.032C155.261 178.272 155.425 179.506 155.74 180.705ZM197.152 181.341C197.307 183.797 197.034 186.261 196.346 188.623C196.346 188.988 197.405 191.008 198.068 185.204C198.484 181.284 197.672 177.332 195.746 173.899C195.54 173.518 195.003 173.899 195.177 174.233C196.27 176.458 196.94 178.868 197.152 181.341ZM178.002 66.3995C177.991 67.5961 178.393 68.7593 179.14 69.6908C180.088 70.5494 181.557 67.2104 185.965 66.6857V62.3927C182.89 62.6192 180.028 64.0593 178.002 66.3995ZM219.54 181.245C219.54 177.97 219.256 174.71 219.193 171.435C219.193 170.99 218.513 171.085 218.513 171.53C218.513 174.917 218.513 178.335 218.656 181.738C218.719 183.98 219.588 183.153 219.54 181.245ZM188.92 62.3132L189.015 66.6062C194.466 66.797 196.046 70.931 196.63 69.6431C196.883 69.0548 197.91 66.1133 197.357 65.6045C195.038 63.5088 192.037 62.3383 188.92 62.3132ZM75.5234 36.5075C74.7018 36.9527 75.5234 38.9084 76.1712 38.4791C76.819 38.0498 76.424 35.9828 75.5234 36.5075ZM74.4806 31.7216C73.3746 31.8329 73.343 32.9777 74.4806 33.1208C75.3047 33.1852 76.1039 33.4351 76.819 33.8522C77.2456 34.1384 77.7038 33.566 77.451 33.1685C77.1255 32.6863 76.6797 32.2988 76.1583 32.0449C75.6369 31.7909 75.0584 31.6794 74.4806 31.7216ZM71.6524 37.3184C72.0753 38.4345 72.4081 39.583 72.6478 40.7528C72.9164 42.1202 72.9006 42.4859 72.8374 42.5654C72.5823 42.5737 72.3284 42.6056 72.079 42.6608C71.6208 42.8198 71.6208 43.4081 72.3318 43.742C72.5247 43.8401 72.7424 43.8774 72.9566 43.849C73.1708 43.8206 73.3716 43.7279 73.5326 43.583C74.3542 42.788 74.0066 40.5461 72.5214 36.9209C72.4691 36.8049 72.373 36.7147 72.2545 36.6699C72.136 36.6252 72.0047 36.6297 71.8894 36.6824C71.7742 36.7351 71.6845 36.8317 71.64 36.951C71.5956 37.0703 71.6001 37.2024 71.6524 37.3184Z" fill="black"/>
<path d="M300.658 228.85H278.237C280.307 217.72 268.015 209.881 260.368 213.983C259.582 210.127 257.425 206.691 254.3 204.323C251.175 201.954 247.299 200.815 243.398 201.12C242.982 198.388 241.956 195.787 240.396 193.512C238.836 191.237 236.783 189.348 234.393 187.987C233.65 179.083 233.982 170.02 233.997 161.227C235.34 161.323 238.564 161.625 238.042 160.337C236.462 156.393 233.76 149.811 231.722 146.027C232.544 146.027 233.476 146.027 233.476 145.184C233.729 129.92 234.219 97.8974 234.219 97.8974C234.471 78.9446 235.104 57.1616 221.879 41.5637C221.468 41.0708 220.899 40.8959 220.536 41.4047C215.156 49.0696 211.619 57.8873 210.203 67.1627C209.665 58.0997 208.954 47.8601 207.564 37.7318C205.194 20.5439 199.474 9.00047 190.184 2.14757C189.299 1.49567 188.004 0.446271 187.419 0.859671C172.915 11.1947 168.649 29.2253 167.637 42.5336C167.274 48.194 167.163 53.9339 167.306 59.6261C165.362 52.328 158.695 38.0816 156.246 41.516C144.838 57.9566 145.802 79.199 146.766 97.9451C148.346 133.656 148.82 142.863 149.025 145.264C149.025 146.043 149.025 146.567 151.205 146.329C146.608 158.588 145.66 160.639 146.07 160.989C146.481 161.338 148.109 161.227 148.899 161.179C148.788 166.538 150.052 192.582 149.878 193.965C148.731 195.371 147.809 196.948 147.145 198.64C144.452 199.377 141.952 200.701 139.822 202.517C137.693 204.333 135.986 206.597 134.821 209.15C132.719 208.943 130.6 209.294 128.675 210.167C126.779 189.004 122.892 157.014 118.136 135.708C126.273 136.773 130.16 133.1 132.04 129.92C136.78 121.604 133.62 107.787 127.742 100.139C122.768 89.4886 115.472 80.103 106.397 72.68C107.36 70.8356 104.817 62.4563 98.3545 59.006C95.5895 57.5273 91.9081 57.416 90.2175 55.826C86.5993 52.2644 89.0325 42.788 81.4959 40.3076C81.0084 36.3887 80.1999 32.5171 79.0785 28.7324C88.5585 24.6302 88.0687 13.532 82.4755 10.3838C77.2615 7.45817 74.3859 11.6081 70.9573 12.7688C66.2173 14.3588 62.1883 10.9244 55.9631 10.9244C44.2237 10.9244 41.4429 22.8176 40.8267 23.4059C40.2105 23.9942 39.9735 27.3491 34.7437 29.4161C29.1821 31.5944 22.1037 31.7216 19.0859 38.3042C16.5263 44.06 21.4401 51.0878 18.0589 56.4143C16.0839 59.5943 8.9897 59.7851 3.8389 68.1008C-1.6753 76.9571 0.173303 88.9775 7.7731 93.9701C1.2319 108.757 1.5321 124.482 8.5473 135.072C14.9621 144.723 25.4217 148.348 36.7819 148.046C36.2131 174.981 36.4501 201.836 35.0281 228.945C29.8931 228.945 24.7423 229.057 19.7021 229.152C19.5596 229.152 19.423 229.209 19.3222 229.31C19.2215 229.412 19.1649 229.549 19.1649 229.693C19.1649 229.836 19.2215 229.973 19.3222 230.075C19.423 230.176 19.5596 230.233 19.7021 230.233C24.2051 230.329 29.5297 230.424 34.9333 230.424C34.0643 246.213 32.8951 262.224 31.4573 277.917C31.3151 279.507 35.0123 279.412 36.5765 279.507C36.1445 281.716 35.98 283.969 36.0867 286.217C34.8859 287.282 33.1321 294.565 33.2269 295.916C33.2269 296.202 33.3533 296.377 33.5429 296.409C35.2809 296.695 61.5405 297.999 62.7571 296.552C62.7875 296.496 62.8035 296.433 62.8035 296.369C62.8035 296.305 62.7875 296.242 62.7571 296.186C61.0033 291.416 54.8571 287.394 49.8327 286.09L51.1915 280C52.2343 280 54.3515 280.159 54.6517 279.603C61.7143 263.575 68.1449 247.024 73.7539 230.44H96.7271C101.104 244.577 104.967 258.87 108.308 273.29C109.651 279.11 108.719 278.792 112.448 278.967C112.431 281.234 112.701 283.494 113.254 285.692C112.042 288.562 111.311 291.614 111.089 294.724C111.059 294.777 111.043 294.837 111.043 294.898C111.043 294.96 111.059 295.02 111.089 295.073C112.085 296.345 140.446 297.411 142.389 296.25C143.969 295.232 135.311 286.789 127.632 285.231C127.743 283.201 127.695 281.165 127.49 279.142C128.833 279.142 131.929 279.507 131.929 278.172C131.929 263.162 131.424 247.087 130.349 230.472H300.705C300.919 230.465 301.121 230.374 301.268 230.217C301.415 230.061 301.493 229.852 301.487 229.637C301.481 229.422 301.39 229.218 301.234 229.07C301.079 228.923 300.871 228.843 300.658 228.85ZM86.6467 200.484C90.5809 211.376 92.6823 218.149 96.2373 228.993H74.2279C78.0673 217.561 83.3761 200.373 86.8679 185.92C88.0529 181.15 90.4387 183.169 89.5697 187.049C88.5585 191.835 86.5993 200.373 86.6467 200.484ZM126.51 285.39C123.808 286.63 117.03 286.551 114.391 285.788C114.218 283.514 113.759 281.24 113.728 278.967L126.147 279.11C126.257 281.209 126.384 283.291 126.51 285.39ZM38.0301 148.03C51.3021 147.362 67.0863 141.257 80.2951 131.669C80.5795 131.462 80.8323 131.415 80.9113 131.144C80.9903 130.874 80.9113 130.651 80.4373 129.968C84.1477 128.22 88.0438 126.902 92.0503 126.04C93.6303 125.754 98.2597 124.864 99.0971 122.336L102.541 122.24C105.859 129.157 111.137 133.959 117.046 135.453L120.206 154.358C94.1043 163.405 70.2779 165.329 38.1249 160.925C38.2355 156.648 38.2513 152.307 38.0775 148.03H38.0301ZM79.4419 51.1196C77.2299 56.8913 72.6163 57.1298 73.3589 58.4972V58.9901C73.6591 61.5182 74.2437 66.7175 70.1989 70.3904C63.3733 67.6556 59.1389 64.5074 55.9789 59.9282C56.6425 58.7675 55.9789 53.6954 55.9789 53.6477C54.9993 48.4643 50.5121 47.4149 51.5233 42.7244C51.6655 42.0407 51.8709 41.6432 52.1395 41.516C53.0243 41.1185 55.2995 44.1872 55.7735 40.6256C56.5161 35.5376 57.9381 31.6103 62.9467 30.1793C67.5919 28.8596 72.0791 31.1174 78.0831 29.0345C79.4419 34.6949 81.7803 44.9345 79.4419 51.1196ZM70.4359 71.7896C73.1693 71.1059 75.5077 64.3484 74.9389 60.5642C79.2031 61.1704 83.4026 62.171 87.4841 63.5534C102.336 68.8799 115.229 80.2643 123.935 95.7191C117.994 89.9951 110.22 86.7674 103.189 87.2126C100.948 83.5157 98.3719 80.0347 95.4947 76.814C95.4518 76.7662 95.3993 76.7281 95.3408 76.7019C95.2823 76.6758 95.219 76.6623 95.155 76.6623C95.091 76.6623 95.0277 76.6758 94.9692 76.7019C94.9107 76.7281 94.8583 76.7662 94.8153 76.814C94.7699 76.8584 94.7338 76.9116 94.7092 76.9703C94.6846 77.029 94.6719 77.0921 94.6719 77.1558C94.6719 77.2196 94.6846 77.2827 94.7092 77.3414C94.7338 77.4001 94.7699 77.4532 94.8153 77.4977C97.3397 80.6566 99.6667 83.9702 101.783 87.4193C99.689 87.7373 97.6703 88.4378 95.8265 89.4863C95.5279 89.5158 95.232 89.5689 94.9417 89.6453C94.0741 89.8426 93.1914 89.965 92.3031 90.011C88.6059 90.011 88.4637 88.421 87.1365 88.5959C84.4979 88.8662 85.2721 94.1132 91.3393 95.2262C90.2491 98.2949 89.7593 105.052 91.7975 107.946C89.3643 107.946 87.8001 107.437 87.7053 109.934C87.6735 110.384 87.6735 110.835 87.7053 111.285C86.9219 110.778 86.0352 110.454 85.1107 110.339C84.1863 110.223 83.2478 110.318 82.3649 110.617C80.7059 111.253 77.5459 114.576 75.9501 115.96C75.9501 115.292 75.9501 114.274 75.3655 114.211C65.3325 113.368 50.0855 113.13 40.9531 113.384C40.4524 106.897 40.537 100.378 41.2059 93.9065C41.2331 93.7737 41.2068 93.6354 41.1328 93.5221C41.0587 93.4088 40.9429 93.3297 40.8109 93.3023C40.6789 93.2749 40.5415 93.3014 40.4289 93.3759C40.3163 93.4504 40.2377 93.567 40.2105 93.6998C39.7049 96.5618 38.7253 108.232 39.7523 113.432L26.8121 114.29C26.7166 114.299 26.626 114.337 26.5524 114.399C26.4788 114.461 26.4257 114.544 26.4 114.638C26.3743 114.731 26.3773 114.829 26.4085 114.921C26.4398 115.012 26.4979 115.092 26.5751 115.149C26.6196 115.189 26.6726 115.218 26.7301 115.235C26.7876 115.252 26.848 115.255 26.9069 115.244C42.859 114.261 58.8589 114.367 74.7967 115.562C74.8701 120.935 76.4771 126.172 79.4261 130.651C58.3489 145.931 23.6679 155.917 9.5111 134.261C-0.679898 118.79 4.3761 91.76 23.2729 75.2558C32.2989 67.468 43.2806 62.3302 55.0151 60.4052C57.8749 65.8907 68.3661 72.2666 70.4201 71.7578L70.4359 71.7896ZM93.8515 91.0604C93.0464 91.9158 92.3704 92.8855 91.8449 93.9383C88.8903 93.4931 87.2155 91.9349 86.9311 90.647C86.7099 89.7566 87.2313 89.3909 88.3215 90.1382C90.0365 90.9802 91.9583 91.3007 93.8515 91.0604ZM101.53 99.8213C101.45 99.9139 101.403 100.031 101.395 100.153C101.388 100.276 101.421 100.397 101.49 100.499C101.558 100.601 101.658 100.677 101.774 100.715C101.89 100.754 102.016 100.752 102.131 100.712C103.41 100.203 104.011 100.314 104.106 100.553C104.2 100.791 103.695 101.968 102.668 102.477C102.004 102.81 100.724 103.113 99.7449 101.316C98.9391 99.8531 100.314 98.2472 99.7449 97.9133C99.1761 97.5794 97.5645 100.044 98.9391 102.206C98.6551 102.416 98.3155 102.535 97.9637 102.549C97.6118 102.564 97.2638 102.472 96.9641 102.286C96.2689 101.745 95.7949 100.235 96.6007 97.5158C96.9009 96.4664 95.1313 96.1961 94.9101 100.696C94.8153 101.316 94.1359 105.132 93.9305 106.42C93.7251 107.708 93.4407 107.803 93.4091 107.819C93.3775 107.835 93.2353 107.819 93.1089 107.644C91.9871 106.372 90.6441 99.9008 92.7929 94.9241C93.4609 93.2457 94.6021 91.8006 96.076 90.7666C97.5498 89.7326 99.292 89.1549 101.088 89.1047C102.144 89.0843 103.19 89.3211 104.135 89.7948C105.081 90.2686 105.899 90.9652 106.52 91.8255C107.14 92.6858 107.545 93.6843 107.7 94.736C107.854 95.7876 107.754 96.8613 107.408 97.8656C107.238 98.4001 106.949 98.8884 106.563 99.2934C106.176 99.6985 105.704 100.01 105.18 100.203C105 99.8925 104.749 99.6292 104.449 99.4344C104.148 99.2396 103.807 99.1187 103.451 99.0815C103.096 99.0443 102.737 99.0919 102.403 99.2205C102.069 99.349 101.77 99.5548 101.53 99.8213ZM89.9015 113.289C89.7079 112.74 89.3345 112.275 88.8429 111.969L89.0325 109.393H96.5217C96.5217 110.252 96.7587 112.78 96.7587 112.78C94.464 112.79 92.1728 112.96 89.9015 113.289ZM94.7995 107.962C95.2167 106.225 95.5176 104.461 95.7001 102.683C96.2136 103.246 96.9114 103.604 97.6658 103.692C98.4202 103.779 99.1807 103.591 99.8081 103.16L100.061 103.335C99.385 106.439 99.2992 109.644 99.8081 112.78H98.2281C98.2711 111.275 98.1063 109.771 97.7383 108.312C97.2801 107.898 95.4947 107.962 94.7995 107.962ZM82.6335 111.81C83.6925 111.544 84.8026 111.564 85.8514 111.868C86.9002 112.172 87.8504 112.75 88.6059 113.543C88.8903 114.02 88.8429 114.179 88.8271 114.227C88.8113 114.274 87.8791 114.402 87.2471 114.37C86.3134 114.218 85.3559 114.351 84.4979 114.751C83.1953 115.803 82.3417 117.316 82.1121 118.981C81.8751 123.035 93.5197 122.526 97.5013 122.399C94.5625 125.42 85.8093 124.737 79.8843 128.902C77.8138 125.308 76.4964 121.326 76.0133 117.2C77.0561 116.723 80.9587 112.541 82.6335 111.81ZM132.04 126.931C128.627 136.964 117.931 134.388 117.488 134.277C110.031 132.384 105.717 125.388 104.09 122.145C105.859 121.731 105.354 119.982 105.18 118.297L118.958 117.979C120.064 120.094 122.686 119.394 122.56 117.279C122.576 116.819 122.432 116.368 122.152 116.004C121.872 115.639 121.475 115.385 121.028 115.285C120.581 115.185 120.114 115.245 119.707 115.456C119.3 115.666 118.979 116.013 118.8 116.437C116.825 116.262 107.108 116.532 105.069 116.755C104.832 112.494 105.069 112.796 101.167 112.812C100.803 109.823 100.803 106.801 101.167 103.812C101.995 103.968 102.85 103.825 103.584 103.409C104.318 102.993 104.883 102.331 105.18 101.538C107.803 101.205 110.441 96.6254 108.119 91.7282C107.684 90.9061 107.085 90.1835 106.359 89.6061C105.633 89.0287 104.796 88.6089 103.9 88.3733C115.956 88.0553 126.873 97.8338 131.234 109.473C131.455 109.473 131.598 109.314 131.234 109.473C133.479 115.028 133.763 121.19 132.04 126.931ZM49.8801 279.968C49.3777 281.971 49.0082 284.006 48.7741 286.058C44.931 286.458 41.0594 286.501 37.2085 286.185C37.4613 283.975 37.6983 281.781 37.9353 279.571L49.8801 279.968ZM260.494 214.921C263.939 212.075 279.17 215.701 276.894 228.898H130.255L128.88 211.28C136.891 208.482 142.768 212.743 144.838 217.927C145.201 218.896 147.24 218.07 144.064 214.079C142.046 211.569 139.196 209.875 136.037 209.309C143.685 194.49 165.331 196.859 169.533 212.791C169.755 213.633 171.003 213.22 170.782 212.377C169.514 207.679 166.533 203.634 162.433 201.05C158.333 198.465 153.416 197.531 148.662 198.433C150.001 195.723 151.984 193.386 154.434 191.63C156.884 189.874 159.726 188.752 162.709 188.364C165.692 187.976 168.725 188.333 171.538 189.404C174.351 190.476 176.859 192.228 178.84 194.506C180.293 196.096 185.16 205.413 186.74 206.51C185.441 208.752 184.628 211.244 184.354 213.824C182.401 214.545 180.624 215.68 179.147 217.154C177.669 218.627 176.524 220.404 175.79 222.363C175.738 222.483 175.735 222.619 175.783 222.741C175.83 222.864 175.924 222.962 176.043 223.015C176.163 223.067 176.298 223.07 176.419 223.022C176.541 222.975 176.639 222.88 176.691 222.76C177.647 220.532 179.163 218.593 181.091 217.134C183.019 215.676 185.291 214.748 187.684 214.443C190.077 214.138 192.507 214.466 194.736 215.395C196.964 216.324 198.913 217.821 200.391 219.739C200.496 219.887 200.654 219.986 200.832 220.016C201.01 220.046 201.192 220.004 201.339 219.898C201.486 219.793 201.585 219.633 201.614 219.454C201.644 219.275 201.602 219.092 201.497 218.944C199.677 216.519 197.176 214.698 194.317 213.718C191.458 212.737 188.373 212.641 185.46 213.443C185.924 210.911 186.893 208.5 188.308 206.355C189.722 204.21 191.554 202.375 193.692 200.961C196.277 199.293 199.24 198.314 202.305 198.115C205.369 197.916 208.433 198.503 211.21 199.823C213.986 201.142 216.385 203.15 218.179 205.657C219.973 208.165 221.105 211.09 221.468 214.158C221.502 214.317 221.593 214.457 221.722 214.554C221.852 214.65 222.012 214.696 222.172 214.682C222.333 214.668 222.483 214.596 222.595 214.48C222.707 214.363 222.772 214.209 222.779 214.047C222.361 210.547 221.015 207.225 218.883 204.427C216.751 201.63 213.911 199.461 210.661 198.147C211.715 195.347 213.466 192.867 215.745 190.943C218.025 189.02 220.757 187.717 223.68 187.16C232.907 185.729 240.823 192.868 241.992 201.279C239.575 201.682 237.28 202.631 235.279 204.055C233.279 205.478 231.625 207.34 230.442 209.5C230.158 210.04 231.027 210.517 231.327 209.992C233.053 207.058 235.688 204.775 238.828 203.494C241.967 202.213 245.438 202.004 248.707 202.901C251.852 203.909 254.589 205.914 256.508 208.617C258.428 211.319 259.427 214.574 259.357 217.895C259.357 218.324 259.925 218.865 260.352 218.563C260.526 218.451 261.031 218.086 260.51 214.921H260.494ZM169.091 43.3922C179.93 41.4842 191.211 41.1503 206.774 42.311C209.271 63.9191 209.634 84.2711 210.029 106.006C206.995 99.2648 203.914 89.4227 203.962 82.6334C203.947 74.7354 202.039 66.9576 198.4 59.96C194.071 51.6443 188.209 45.7613 181.826 52.6619C172.978 62.2019 173.61 73.7135 173.784 86.4812C173.197 92.159 171.984 97.7532 170.165 103.16C169.612 76.655 168.08 57.1298 169.091 43.3922ZM232.417 144.739C231.255 144.556 230.072 144.556 228.91 144.739L229.068 132.21C229.114 131.926 229.096 131.635 229.013 131.359C228.931 131.084 228.788 130.831 228.594 130.62C224.976 127.567 214.848 117.741 211.498 108.98C211.498 99.7577 211.356 90.4085 210.993 81.1865C219.003 80.948 226.493 81.0434 232.797 81.1865C233.429 96.689 232.244 123.783 232.417 144.739ZM169.312 187.271C166.114 186.556 162.787 186.664 159.641 187.587C156.495 188.51 153.632 190.217 151.316 192.55C151.205 189.132 150.51 167.889 150.273 161.211L168.222 160.861C168.175 164.089 169.012 184.155 169.312 187.271ZM204.293 93.6044C207.185 105.641 212.367 118.504 227.693 131.59C227.693 135.883 227.204 146.742 227.488 150.876C227.172 150.876 203.914 151.035 202.208 151.178C203.976 132.042 204.672 112.82 204.293 93.6044ZM174.131 93.8429C175.19 113.32 177.133 132.702 179.93 151.528C176.059 151.433 157.905 150.876 155.266 151.003C155.266 148.396 154.618 133.386 154.555 131.923C164.618 121.413 171.421 108.181 174.131 93.8429ZM169.391 160.83C170.529 160.83 173.041 161.1 172.899 159.971C172.189 157.485 171.22 155.081 170.007 152.8L180.088 152.943C180.325 154.406 180.546 155.869 180.767 157.332C179.282 158.922 176.28 168.144 175.869 169.813C175.838 169.924 175.833 170.041 175.855 170.154C175.877 170.268 175.925 170.374 175.996 170.465C176.375 170.942 177.37 171.006 178.429 171.006C173.831 178.335 176.327 187.398 178.081 191.866C175.895 189.937 173.334 188.486 170.56 187.605C170.924 184.695 169.597 163.501 169.407 160.83H169.391ZM177.481 178.065C177.815 175.611 178.609 173.242 179.819 171.085C187.108 171.379 194.406 171.3 201.686 170.847C202.555 174.297 210.471 183.344 200.644 196.938C197.977 197.302 195.415 198.226 193.126 199.651C190.837 201.075 188.871 202.968 187.356 205.207C181.763 196.7 176.059 188.305 177.497 178.065H177.481ZM202.903 110.935C202.666 126.963 201.686 141.002 200.517 156.362L181.921 156.855C178.413 132.416 176.912 114.926 175.601 94.8446C175.237 89.1524 174.874 83.2535 175 77.4818C175.206 67.5761 177.212 60.5165 181.32 55.2218C187.135 47.7647 191.843 51.0878 196.457 59.3399C199.106 64.1034 200.928 69.287 201.844 74.6675C203.266 82.7765 202.982 106.308 202.919 110.935H202.903ZM209.539 197.733C207.266 196.993 204.879 196.669 202.492 196.78C205.151 193 206.632 188.51 206.747 183.88C206.862 179.251 205.607 174.692 203.14 170.783C204.167 170.783 206.9 170.783 206.584 169.813C206.047 168.001 204.531 164.232 203.314 161.195C202.524 159.192 201.734 157.459 201.734 156.998C201.829 156.155 202.208 152.403 202.208 152.403C203.677 152.641 210.708 152.403 213.094 152.403C211.088 158.763 211.356 157.968 210.929 159.065C210.613 159.907 210.455 160.321 210.661 160.655C210.866 160.989 211.704 160.973 213.821 161.02C213.821 170.195 214.595 180.8 214.99 189.943C212.43 191.92 210.533 194.639 209.555 197.733H209.539ZM214.832 161.005L232.828 161.179C232.255 169.836 232.287 178.523 232.923 187.176C230.211 185.979 227.237 185.509 224.291 185.813C221.344 186.117 218.527 187.183 216.112 188.909C215.78 179.607 215.527 170.052 214.848 161.005H214.832ZM169.17 42.1997C170.26 29.3366 174.463 12.1169 188.13 2.22707C201.276 11.306 204.862 26.8085 206.6 40.8482C195.398 40.0214 179.63 40.1327 169.186 42.1997H169.17ZM147.84 83.2694C151.521 83.2694 165.22 83.0786 168.38 83.0627C168.664 90.6947 168.954 98.3373 169.249 105.99C166.326 113.622 159.769 125.357 153.623 131.113C153.307 132.702 153.718 142.942 153.797 144.786C152.643 144.898 151.49 145.009 150.415 145.168C149.783 123.767 147.84 96.1166 147.84 83.2694Z" fill="black"/>
<path d="M71.3523 47.3195C67.0705 46.9856 65.9803 43.8533 65.0323 44.1395C64.7795 44.1395 64.6689 44.4734 64.6057 44.6483C63.2627 47.5898 64.9691 51.2468 67.9553 51.2468C68.8738 51.1477 69.7484 50.7996 70.4858 50.2396C71.2232 49.6795 71.7957 48.9286 72.1423 48.0668C72.1945 47.9572 72.2106 47.8337 72.1885 47.7143C72.1663 47.5948 72.1069 47.4855 72.0189 47.4023C71.9309 47.3191 71.8189 47.2662 71.699 47.2513C71.5792 47.2364 71.4577 47.2603 71.3523 47.3195ZM70.5939 48.4166C68.4609 51.2786 65.0797 50.0066 65.4115 46.0793C66.0669 46.8094 66.8661 47.3942 67.7583 47.7966C68.6505 48.1989 69.6162 48.4101 70.5939 48.4166ZM190.5 116.834C190.475 116.665 190.39 116.51 190.261 116.398C190.132 116.287 189.967 116.225 189.797 116.225C189.627 116.225 189.462 116.287 189.333 116.398C189.204 116.51 189.119 116.665 189.094 116.834C189.094 119.235 189.884 148.857 190.326 152.069C190.326 152.221 190.386 152.366 190.493 152.473C190.6 152.581 190.744 152.641 190.895 152.641C191.046 152.641 191.191 152.581 191.297 152.473C191.404 152.366 191.464 152.221 191.464 152.069C192.175 141.956 190.832 127.312 190.5 116.834ZM65.6801 39.8306C66.1857 39.8306 66.3437 39.29 66.2331 38.7335C66.0119 37.6205 65.1271 37.5569 64.9059 38.1929C64.6847 38.8289 65.0007 39.8306 65.6801 39.8306ZM64.0053 33.1049C63.2939 33.2472 62.6528 33.6314 62.1896 34.1931C61.7264 34.7547 61.4693 35.4596 61.4615 36.1895C61.5879 37.0163 62.2673 37.0163 62.3779 36.4121C62.7097 34.7108 63.4207 34.8221 64.3055 34.2815C64.4329 34.2188 64.535 34.1139 64.5945 33.9842C64.654 33.8546 64.6672 33.7083 64.6319 33.57C64.5967 33.4318 64.515 33.31 64.4009 33.2252C64.2867 33.1405 64.147 33.098 64.0053 33.1049ZM225.386 182.565C225.386 182.867 225.971 182.772 226.034 182.469C226.287 181.388 225.118 169.066 225.307 165.727C225.307 165.297 224.675 165.313 224.644 165.727C224.352 171.35 224.601 176.989 225.386 182.565ZM189.046 195.492C189.362 195.73 189.852 195.348 189.647 194.999C189.046 193.933 188.193 193.107 187.293 191.469C185.91 188.874 185.113 186.004 184.957 183.063C184.802 180.123 185.292 177.184 186.392 174.456C186.566 174.058 185.934 173.82 185.744 174.233C184.401 177.336 183.855 180.728 184.156 184.098C184.457 187.468 185.595 190.708 187.466 193.52C187.889 194.255 188.422 194.92 189.046 195.492Z" fill="black"/>
</svg>
