<svg width="24" height="24" viewBox="0 0 24 24" fill="none" xmlns="http://www.w3.org/2000/svg">
<path d="M0.000640392 12.5683C0.014967 12.617 0.0492487 12.6687 0.0410624 12.7132C-0.0280123 13.0911 0.20684 13.2145 0.50258 13.3435C2.34405 14.1452 4.26074 14.6624 6.25263 14.9076C6.64405 14.9557 6.65582 14.9532 6.63126 14.5461C6.5494 13.1771 6.55247 11.8075 6.58573 10.4374C6.59494 10.055 6.61233 9.672 6.63996 9.29006C6.65224 9.11905 6.60466 9.074 6.43069 9.09192C5.02362 9.23783 3.65135 9.54144 2.30875 9.98124C1.6308 10.2029 0.97075 10.4702 0.316847 10.7549C0.131626 10.8358 0.0216198 10.9305 0.0497613 11.1476C0.0625525 11.2469 0.0518079 11.3518 0.0001297 11.4455V12.5693L0.000640392 12.5683Z" fill="#B2B2B2"/>
<path d="M11.4373 0C11.3979 0.0138237 11.3549 0.044543 11.3191 0.0378872C10.9087 -0.0327673 10.7803 0.229883 10.6432 0.54834C9.85469 2.37819 9.34354 4.28023 9.09999 6.25651C9.0519 6.64715 9.05446 6.65842 9.43667 6.63538C10.813 6.55346 12.1904 6.55397 13.5683 6.5893C13.9505 6.59903 14.3333 6.61643 14.715 6.64357C14.8869 6.65586 14.9309 6.60619 14.913 6.43365C14.7656 5.01749 14.4586 3.63666 14.015 2.28552C13.7981 1.62352 13.5346 0.979947 13.2624 0.338937C13.1754 0.133629 13.0705 0.0148477 12.8321 0.048127C12.743 0.0604147 12.6443 0.0563188 12.5609 0C12.1863 0 11.8118 0 11.4378 0L11.4373 0Z" fill="#B2B2B2"/>
<path d="M8.73467 12.0057C8.71983 13.002 8.76281 13.9968 8.83188 14.9906C8.84058 15.1124 8.86412 15.1667 9.00278 15.1759C11.0003 15.3141 12.9973 15.3152 14.9943 15.1749C15.1064 15.1672 15.157 15.1436 15.1663 15.0177C15.2788 13.4367 15.2988 11.8546 15.2338 10.271C15.2169 9.85429 15.1837 9.43855 15.1668 9.0223C15.1616 8.89943 15.1345 8.84618 14.9964 8.83696C12.9989 8.69873 11.0024 8.69821 9.00483 8.83696C8.8677 8.84669 8.84109 8.89738 8.8324 9.02077C8.76332 10.0145 8.72085 11.0093 8.73518 12.0057H8.73467Z" fill="#B2B2B2"/>
<path d="M12.5077 17.4511C11.313 17.445 10.3101 17.4352 9.30878 17.3687C9.1123 17.3554 9.06472 17.4066 9.08621 17.6037C9.28985 19.454 9.74216 21.2409 10.4401 22.9652C10.5516 23.2402 10.679 23.509 10.7895 23.7844C10.8412 23.9134 10.9226 23.9508 11.0587 23.9616C11.687 24.0133 12.3143 24.0122 12.9426 23.9616C13.0818 23.9503 13.1534 23.9032 13.2092 23.7798C13.9905 22.0539 14.5354 20.2583 14.8056 18.3814C14.8444 18.1126 14.8659 17.8412 14.9115 17.5735C14.9422 17.3927 14.8731 17.361 14.7099 17.3682C13.9117 17.4035 13.1135 17.4286 12.5067 17.4501L12.5077 17.4511Z" fill="#B2B2B2"/>
<path d="M23.9996 11.9959C23.9802 11.6733 23.9525 11.3513 23.9459 11.0287C23.9433 10.8864 23.863 10.8403 23.7586 10.7932C22.1525 10.0626 20.4814 9.54294 18.7402 9.25315C18.3637 9.19069 17.983 9.15434 17.6064 9.09341C17.4058 9.06064 17.3439 9.11594 17.3572 9.32585C17.4268 10.421 17.4514 11.5182 17.4289 12.6154C17.4145 13.304 17.391 13.9926 17.3577 14.6802C17.3485 14.8758 17.3843 14.9449 17.6003 14.9209C18.8769 14.7775 20.1279 14.5169 21.3543 14.138C22.1735 13.8846 22.9707 13.5738 23.7535 13.2236C23.887 13.1637 23.9484 13.091 23.9464 12.939C23.9423 12.6246 24.0119 12.3128 23.9991 11.9964L23.9996 11.9959Z" fill="#B2B2B2"/>
<path d="M0.647868 8.24044C1.20865 8.06841 1.73055 7.90099 2.25756 7.74842C3.69481 7.33269 5.15663 7.04034 6.64556 6.89237C6.79548 6.87753 6.8707 6.82991 6.88707 6.66659C7.08764 4.68212 7.53483 2.75243 8.17646 0.865751C8.19744 0.804313 8.25781 0.733146 8.20255 0.678875C8.14883 0.626141 8.07668 0.680923 8.01528 0.703963C4.44389 2.03872 2.00633 4.50241 0.682662 8.07558C0.668335 8.11449 0.665265 8.1575 0.64838 8.24044H0.647868Z" fill="#B2B2B2"/>
<path d="M0.670892 15.8932C0.686242 15.9387 0.70722 16.0119 0.734338 16.0831C2.06773 19.5569 4.46998 21.9597 7.9457 23.2868C7.98509 23.3021 8.02449 23.3201 8.06542 23.3298C8.11199 23.3411 8.16673 23.3784 8.20664 23.3339C8.244 23.2914 8.21176 23.2381 8.19539 23.1916C8.00505 22.6468 7.83518 22.0959 7.68219 21.5399C7.30612 20.1708 7.03136 18.7823 6.88963 17.3692C6.87274 17.2023 6.81134 17.1373 6.64301 17.1199C4.6946 16.9197 2.79685 16.4901 0.944632 15.8548C0.880674 15.8327 0.816204 15.8107 0.750711 15.7938C0.692894 15.779 0.645821 15.7856 0.67038 15.8942L0.670892 15.8932Z" fill="#B2B2B2"/>
<path d="M15.768 0.679943C15.8964 1.09005 16.0274 1.4981 16.1517 1.9082C16.6204 3.45544 16.9453 5.03185 17.1091 6.64052C17.1259 6.80436 17.1812 6.87552 17.3526 6.89293C19.3087 7.09619 21.2151 7.52626 23.0745 8.16522C23.1513 8.19184 23.2444 8.26813 23.3114 8.2113C23.3861 8.14833 23.3073 8.05514 23.2797 7.98142C21.9571 4.46917 19.5364 2.05259 16.0315 0.721926C15.9573 0.693766 15.8821 0.638472 15.768 0.679943Z" fill="#B2B2B2"/>
<path d="M15.7956 23.3698C16.8164 23.0313 17.7583 22.569 18.6343 21.9772C20.7915 20.5195 22.3311 18.5719 23.2434 16.1308C23.2613 16.0831 23.2797 16.0355 23.2945 15.9869C23.3135 15.9255 23.3764 15.8548 23.3165 15.8021C23.2618 15.7534 23.1896 15.8092 23.1272 15.8307C21.9714 16.2286 20.7945 16.5475 19.5947 16.7825C18.862 16.9259 18.1257 17.0488 17.3823 17.1179C17.2134 17.1337 17.1275 17.1778 17.108 17.3677C16.9121 19.3005 16.4823 21.1826 15.8621 23.0226C15.8325 23.1107 15.8053 23.1998 15.7792 23.2894C15.7751 23.3027 15.7849 23.3201 15.7951 23.3703L15.7956 23.3698Z" fill="#B2B2B2"/>
</svg>
