<svg width="5" height="21" viewBox="0 0 5 21" fill="none" xmlns="http://www.w3.org/2000/svg">
<mask id="path-1-inside-1_4_393" fill="white">
<path fill-rule="evenodd" clip-rule="evenodd" d="M5 2.5C5 3.88071 3.88071 5 2.5 5C1.11929 5 0 3.88071 0 2.5C0 1.11929 1.11929 0 2.5 0C3.88071 0 5 1.11929 5 2.5ZM5 10.5C5 11.8807 3.88071 13 2.5 13C1.11929 13 0 11.8807 0 10.5C0 9.11929 1.11929 8 2.5 8C3.88071 8 5 9.11929 5 10.5ZM2.5 21C3.88071 21 5 19.8807 5 18.5C5 17.1193 3.88071 16 2.5 16C1.11929 16 0 17.1193 0 18.5C0 19.8807 1.11929 21 2.5 21Z"/>
</mask>
<path d="M2.5 6C4.433 6 6 4.433 6 2.5H4C4 3.32843 3.32843 4 2.5 4V6ZM-1 2.5C-1 4.433 0.567003 6 2.5 6V4C1.67157 4 1 3.32843 1 2.5H-1ZM2.5 -1C0.567003 -1 -1 0.567003 -1 2.5H1C1 1.67157 1.67157 1 2.5 1V-1ZM6 2.5C6 0.567003 4.433 -1 2.5 -1V1C3.32843 1 4 1.67157 4 2.5H6ZM2.5 14C4.433 14 6 12.433 6 10.5H4C4 11.3284 3.32843 12 2.5 12V14ZM-1 10.5C-1 12.433 0.567003 14 2.5 14V12C1.67157 12 1 11.3284 1 10.5H-1ZM2.5 7C0.567003 7 -1 8.567 -1 10.5H1C1 9.67157 1.67157 9 2.5 9V7ZM6 10.5C6 8.567 4.433 7 2.5 7V9C3.32843 9 4 9.67157 4 10.5H6ZM4 18.5C4 19.3284 3.32843 20 2.5 20V22C4.433 22 6 20.433 6 18.5H4ZM2.5 17C3.32843 17 4 17.6716 4 18.5H6C6 16.567 4.433 15 2.5 15V17ZM1 18.5C1 17.6716 1.67157 17 2.5 17V15C0.567003 15 -1 16.567 -1 18.5H1ZM2.5 20C1.67157 20 1 19.3284 1 18.5H-1C-1 20.433 0.567003 22 2.5 22V20Z" fill="black" mask="url(#path-1-inside-1_4_393)"/>
</svg>
