<svg width="25" height="25" viewBox="0 0 25 25" fill="none" xmlns="http://www.w3.org/2000/svg">
<path d="M1.71661e-05 13.1729C0.0738544 13.7211 0.116926 14.2754 0.226562 14.8169C0.958221 18.4298 2.87966 21.2344 6.01606 23.1754C7.52301 24.1078 9.17259 24.6772 10.938 24.901C11.73 25.0017 12.2877 24.7119 12.4595 24.0133C12.6692 23.1608 12.2754 22.3648 11.339 22.2463C7.03971 21.7003 3.73326 18.602 2.87295 14.3352C2.77618 13.8564 2.75157 13.367 2.72919 12.8759C2.6699 11.5944 2.85953 10.3604 3.2936 9.15726C3.69858 8.03463 4.30326 7.03449 5.07128 6.12106C5.97523 5.04653 7.06992 4.22875 8.33074 3.63639C9.24979 3.20456 10.2119 2.89635 11.2333 2.79511C11.6652 2.7526 12.0953 2.68604 12.5294 2.69275C14.9604 2.72911 17.1017 3.53346 18.9588 5.10806C20.0585 6.03995 20.85 7.19391 21.4704 8.47876C21.4743 8.48715 21.4743 8.49722 21.4777 8.50561C21.6561 8.91506 21.6471 8.92848 21.2036 8.92904C21.0178 8.92904 20.831 8.92121 20.6459 8.93296C20.5278 8.94023 20.393 8.9654 20.3662 9.10916C20.3388 9.25683 20.3494 9.38884 20.5077 9.49344C21.8295 10.366 23.1451 11.2481 24.4641 12.1258C24.5715 12.1974 24.6901 12.2768 24.8233 12.2024C24.9665 12.123 25.0078 11.9899 24.9995 11.8243C24.9295 10.4561 24.6286 9.13936 24.1296 7.86626C23.634 6.60155 22.9466 5.44312 22.0628 4.41893C20.1413 2.19324 17.7315 0.784773 14.8385 0.21982C14.0251 0.0609624 13.2045 -0.0134324 12.3772 0.00222968C10.7948 0.0324351 9.26545 0.328895 7.79878 0.931885C6.58941 1.42915 5.47459 2.08584 4.47331 2.92768C3.33947 3.88083 2.41035 5.0057 1.67086 6.29111C0.849703 7.71915 0.344589 9.25179 0.114689 10.8773C0.0699387 11.195 0.0665836 11.5183 1.71661e-05 11.8338V13.1729Z" fill="black"/>
<path d="M14.283 19.6156C14.283 18.0914 14.283 16.5671 14.283 15.0423C14.283 14.4555 14.4441 14.2916 15.0202 14.2916C15.1315 14.2916 15.2434 14.2916 15.3547 14.2916C15.8828 14.2922 16.0623 14.4678 16.0623 14.988C16.0623 16.3081 16.0623 17.6276 16.0623 18.9477C16.0623 20.7047 16.0623 22.4611 16.0623 24.218C16.0623 24.8434 15.9113 24.9966 15.2971 24.9972C15.1858 24.9972 15.0739 24.9972 14.9626 24.9972C14.4743 24.9955 14.2835 24.8093 14.283 24.3282C14.2824 22.7575 14.283 21.1863 14.283 19.6156Z" fill="black"/>
<path d="M24.9865 17.3222C24.9708 15.9462 24.0624 14.7732 22.74 14.4029C22.1102 14.2267 21.4658 14.2871 20.8281 14.2972C19.211 14.3229 17.8741 15.6626 17.8573 17.2814C17.8411 18.861 17.8433 20.4412 17.8573 22.0208C17.8685 23.2436 18.6723 24.3439 19.8106 24.7886C20.4751 25.0481 21.1621 24.995 21.8467 24.9944C23.6513 24.9933 24.9826 23.6648 24.9882 21.8659C24.9904 21.1225 24.9882 20.3791 24.9882 19.6352C24.9882 18.8638 24.9949 18.0925 24.9865 17.3211V17.3222ZM23.2049 21.4078C23.201 22.4275 22.4061 23.2207 21.4054 23.2145C20.4215 23.2084 19.6417 22.413 19.6361 21.4061C19.6327 20.8115 19.6355 20.2169 19.6355 19.6223C19.6355 19.0372 19.6322 18.4516 19.6361 17.8665C19.6434 16.8647 20.4338 16.0737 21.421 16.0743C22.4095 16.0754 23.1993 16.8641 23.2043 17.8682C23.2099 19.0479 23.2094 20.2275 23.2043 21.4078H23.2049Z" fill="black"/>
</svg>
