<svg width="13" height="9" viewBox="0 0 13 9" fill="none" xmlns="http://www.w3.org/2000/svg">
<path d="M8.65514 0C8.93368 0.0532068 9.14675 0.208806 9.34439 0.407713C10.4443 1.51609 11.5409 2.62817 12.6591 3.71798C13.1139 4.16127 13.1139 4.84028 12.6591 5.28418C11.5085 6.40679 10.3832 7.55568 9.24341 8.68942C8.69188 9.23788 7.79914 9.0297 7.56506 8.30058C7.44061 7.91297 7.5348 7.56898 7.8189 7.28191C8.36455 6.73067 8.91484 6.18406 9.46297 5.63529C9.49848 5.59971 9.53245 5.56228 9.59297 5.49825H9.38638C5.71935 5.49825 4.83123 5.49206 1.16419 5.50443C0.584873 5.50629 0.19856 5.29192 0 4.74778V4.25438C0.19856 3.71118 0.583021 3.49557 1.16264 3.49773C4.83277 3.51011 5.72367 3.50423 9.3938 3.5033C9.44969 3.5033 9.51114 3.52062 9.59483 3.46556C9.54017 3.4238 9.49477 3.3972 9.45895 3.36131C8.9065 2.81037 8.35158 2.2616 7.80469 1.70509C7.40016 1.29336 7.41962 0.666632 7.83403 0.272221C7.98843 0.125284 8.17835 0.0544442 8.37783 0.000618684H8.65514V0Z" fill="black"/>
</svg>
