<svg width="147" height="140" viewBox="0 0 147 140" fill="none" xmlns="http://www.w3.org/2000/svg">
<path d="M99.0208 25.4749C97.1926 26.3955 95.8121 27.2839 95.3314 29.1099C95.1429 29.8251 95.1413 29.8396 94.9229 29.6878C93.865 28.9558 92.7995 28.1095 91.4504 28.3134C90.7766 28.4154 89.6352 28.8945 89.6636 29.5667C89.616 30.0251 90.076 30.1447 90.3995 29.8749C92.9206 27.773 95.5468 32.9488 96.134 30.692C96.2927 30.0842 96.1171 30.0535 96.5441 28.9665C97.2141 27.2632 99.4133 26.8194 99.9062 26.0191C100.205 25.5339 99.6333 25.166 99.0201 25.4749H99.0208Z" fill="black"/>
<path d="M14.153 101.704C13.5444 101.673 12.3815 102.076 11.3321 103.137C10.4291 104.051 10.8791 104.699 10.4 104.459C9.45869 103.99 8.37249 103.379 7.23877 103.399C5.16141 103.438 5.65507 105.034 6.48218 104.595C7.43653 104.088 9.14364 105.039 10.0727 105.546C12.2428 106.732 10.9987 104.513 12.6544 103.458C13.3443 103.019 13.9553 102.722 14.3707 102.397C14.6597 102.17 14.6912 101.731 14.153 101.704Z" fill="black"/>
<path d="M29.2931 96.8644C29.1674 97.0561 29.1605 97.0477 28.9436 96.9426C27.1675 96.0833 26.9559 95.881 25.3707 95.7261C25.015 95.8074 24.4424 95.8411 24.4907 96.3294C24.5221 96.6475 24.9268 96.7579 25.2457 96.7671C27.9647 96.8399 29.1045 99.4025 30.1309 97.6118C30.9703 96.1477 34.2289 94.5947 34.13 94.3325C33.7567 93.3398 30.3793 95.2141 29.2931 96.8644Z" fill="black"/>
<path d="M114.669 29.3467C112.771 30.0749 112.52 30.495 111.773 31.71C110.893 31.1497 109.93 30.4912 108.754 30.6407C107.385 30.8139 107.981 32.2742 108.757 31.7552C109.427 31.3068 111.353 32.82 111.602 32.9671C112.045 33.2293 112.466 33.0806 112.656 32.5984C113.558 30.308 114.891 30.8001 115.492 29.9738C115.785 29.5698 115.39 29.0715 114.669 29.3483V29.3467Z" fill="black"/>
<path d="M116.884 17.8324C115.114 19.1654 115.342 19.8898 115.084 19.7066C114.172 19.0604 113.605 18.589 112.775 18.5154C112.005 18.4993 111.65 18.9699 111.844 19.3724C112.113 19.9297 112.315 19.3195 113.109 19.6897C114.458 20.3191 115.722 22.2569 116.154 20.4509C116.535 18.8557 118.838 18.1743 118.854 18.1666C119.584 17.791 118.687 16.4741 116.885 17.8316L116.884 17.8324Z" fill="black"/>
<path d="M16.0977 89.5861C15.2468 89.107 14.445 88.5788 13.3596 88.7252C12.7463 88.808 12.6298 89.5523 13.3803 89.5968C15.5933 89.7286 16.3537 92.1701 17.1977 89.8758C17.5074 89.0341 18.6296 87.7279 18.8887 87.4443C20.4601 85.7204 20.5092 86.0201 20.8081 85.7296C21.1975 85.3509 18.6334 84.9553 16.0985 89.5853L16.0977 89.5861Z" fill="black"/>
<path d="M82.9579 118.598C82.9579 115.525 83.1112 113.051 85.2652 110.798C88.0738 107.859 90.1044 107.263 92.7322 107.322C96.2698 107.402 99.1398 108.518 101.379 111.258C103.442 113.782 103.03 114.167 103.418 113.396C105.452 109.353 109.084 106.823 112.462 106.143C117.798 105.07 124.94 110.149 124.609 115.369C124.472 117.539 122.278 121.884 122.977 121.907C126.552 122.024 129.202 122.574 133.35 126.705C134.208 127.559 135.45 129.338 135.625 130.509C135.735 131.245 136.112 131.18 138.909 131.887C142.235 132.727 143.594 132.942 144.907 134.243C145.996 135.321 145.516 136.829 144.35 137.53C141.762 139.087 139.225 139.174 136.501 139.133C127.358 138.993 123.871 139.49 100.769 138.735C89.3325 138.361 100.002 138.604 81.2906 138.02C56.2298 137.237 57.9063 138.051 54.5595 137.566C52.1694 137.219 48.7046 136.549 49.5539 134.288C50.0775 132.896 52.5236 132.529 54.2207 132.045C57.0623 131.236 57.7154 130.764 61.9015 130.704C63.7458 130.677 65.8194 130.944 66.057 129.11C66.3184 127.097 66.0386 126.486 66.7454 124.67C67.2973 123.252 68.9247 121.276 71.3339 120.119C75.6044 118.066 79.106 120.747 82.1362 122.577C82.7042 122.92 82.7969 123.125 82.8644 122.894C82.8874 122.816 83.0062 118.596 82.9571 118.596L82.9579 118.598ZM83.8647 122.565C83.8563 122.952 83.7735 123.324 83.6892 123.697C83.4163 124.896 82.1323 123.796 81.4876 123.406C77.3115 120.881 76.5848 120.348 73.9072 120.491C71.3094 120.631 68.313 123.138 67.5786 125.566C66.7262 128.383 68.3643 131.343 63.3173 131.555C61.0744 131.65 60.836 131.424 58.8323 131.75C56.3387 132.156 56.0505 132.581 51.8268 133.664C50.5957 133.98 49.245 135.146 51.9287 135.954C56.4008 137.3 60.0817 136.32 66.566 136.651C66.7147 136.659 66.6005 136.918 89.0964 137.162C89.1141 137.162 115.401 138.701 134.686 138.128C135.808 138.094 141.935 138.74 144.331 136.463C144.687 136.124 144.812 135.342 144.353 134.881C142.837 133.355 141.06 133.476 135.851 132.05C134.632 131.716 134.854 130.724 134.333 129.727C133.301 127.755 132.123 126.881 131.154 126.004C125.514 120.902 121.136 124.282 121.676 121.824C122.828 116.576 125.734 114.586 120.767 109.714C119.6 108.57 118.681 108.229 116.567 107.393C114.747 106.673 112.379 106.726 109.766 108.195C103.895 111.496 104.544 115.278 103.117 115.141C101.997 115.035 100.517 108.817 93.7754 108.367C93.1829 108.327 91.4988 108.303 90.7161 108.449C88.7062 108.823 86.7178 110.599 85.5611 112.028C83.7037 114.322 83.9927 116.425 83.864 122.565L83.8647 122.565Z" fill="black"/>
<path d="M101.288 48.8386C104.509 48.8041 106.752 48.9742 109.728 52.3379C111.326 54.1446 111.227 54.6605 111.425 54.3094C115.532 47.0295 117.802 45.9471 123.383 45.6336C129.308 45.3009 132.936 51.1451 132.918 54.6C132.875 62.7775 129.707 58.1307 136.941 60.8504C138.868 61.5748 140.451 62.8779 140.328 64.9346C140.254 66.1672 139.663 66.9951 138.842 68.394C138.428 69.0992 138.093 68.7121 142.303 70.1425C142.842 70.3257 144.742 70.9919 145.436 71.3652C146.715 72.052 146.676 72.8661 146.066 73.2478C143.939 74.5747 139.768 73.894 136.223 74.0604C133.178 74.2037 98.8575 73.9009 94.5403 73.5399C93.2425 73.431 90.7819 73.546 90.5251 73.5429C81.4216 73.431 74.6813 74.3394 72.8017 72.5372C72.374 72.1271 72.3533 71.6036 72.778 71.1804C73.0271 70.9313 73.3337 70.7734 73.6373 70.614C76.275 69.225 78.8644 68.6654 80.2357 68.3212C81.2529 68.0659 81.5051 68.2315 81.3932 67.908C80.8858 66.4378 81.2085 64.493 82.0685 63.1148C83.4514 60.8995 87.6168 60.0463 90.9069 61.7319C92.256 62.4234 91.9494 62.3881 91.4672 60.2119C90.312 55.0016 94.4836 48.9114 101.289 48.8378L101.288 48.8386ZM142.388 73.1635C143.609 73.1666 145.839 72.7419 145.358 72.3923C145.187 72.2682 145.015 72.1356 144.821 72.0589C139 69.7363 137.167 70.0904 137.611 68.7121C138.055 67.3346 141.768 63.8829 136.763 61.8308C135.164 61.1747 132.893 60.7638 131.83 60.7914C131.265 60.8059 130.879 60.4242 131.057 59.8094C132.566 54.6252 132.224 51.8319 128.49 48.2598C127.572 47.3821 126.239 47.0034 124.968 46.7589C123.697 46.5144 123.608 46.6202 121.465 46.8279C113.083 47.6389 112.311 58.8896 110.559 55.3167C109.888 53.9499 108.531 52.288 106.336 50.8178C105.068 49.9685 103.719 49.9846 102.423 49.8857C99.214 49.6411 96.9649 50.177 94.1524 53.3213C92.6692 54.9802 91.9218 57.742 92.5542 60.3912C92.7742 61.3142 92.7849 62.277 93.0923 63.1822C93.159 63.3785 93.0731 63.5494 92.9083 63.6705C92.5618 63.9258 92.2568 63.5954 92.0958 63.485C88.2868 60.8757 82.5691 61.3218 82.1943 65.7586C82.1329 66.4799 82.0808 67.2151 82.3046 67.9318C82.8389 69.645 78.396 68.6585 73.4518 71.6611C73.2839 71.763 73.2823 71.8719 73.4518 71.9516C76.5647 73.4195 83.8339 72.1662 98.8437 72.7511C110.829 73.2179 142.345 73.1627 142.388 73.1627V73.1635Z" fill="black"/>
<path d="M7.43122 137.558C39.8816 137.558 38.2289 138.633 40.1177 137.51C41.5189 136.676 37.9177 135.543 36.0994 135.088C31.6964 133.986 31.0049 134.626 30.4714 131.887C29.9977 129.455 30.0966 128.267 28.4707 127.382C27.7111 126.969 26.1458 126.558 25.022 126.621C23.2789 126.719 22.4602 127.244 20.392 128.523C19.4438 129.109 18.8827 129.756 18.3132 128.887C17.4309 127.542 17.066 121.219 10.0574 122.158C6.76662 122.598 5.10934 126.554 4.06376 125.188C3.82766 124.88 3.58006 123.787 2.63951 123.241C1.68055 122.685 1.25512 122.796 0.940831 122.43C0.225639 121.6 3.22668 121.556 4.39414 123.551C4.75213 124.163 4.6609 124.288 5.06181 123.96C7.43888 122.015 8.02529 121.082 11.4594 121.046C13.4203 121.025 15.3167 121.733 16.7072 123.324C18.0786 124.893 18.1139 125.483 18.6642 127.081C19.046 128.187 19.0054 128.206 19.2744 128.042C21.2751 126.82 22.405 126.018 23.8645 125.764C25.4835 125.483 27.1691 125.745 28.5282 126.308C30.3342 127.057 30.8087 128.206 31.1115 129.779C32.144 135.139 31.2127 132.169 38.475 134.762C40.0349 135.319 40.7393 135.644 41.2706 136.566C41.6224 137.176 41.4124 138.034 40.051 138.575C38.1415 139.334 35.4463 138.9 34.1133 138.841C25.3532 138.456 3.12243 138.891 1.40919 138.423C1.17003 138.358 1.05965 137.898 1.43602 137.805C2.34822 137.58 7.43122 137.541 7.43122 137.558Z" fill="black"/>
<path d="M57.4364 81.8378C58.1531 74.5226 57.7024 74.715 58.0826 74.2857C69.0719 61.8929 78.8967 51.1512 80.321 34.5432C81.1849 24.4784 76.6009 15.532 71.4581 12.104C69.4038 10.7318 68.4709 9.91852 66.1115 8.9864C65.5181 8.75183 65.3388 8.56173 64.9816 8.18459C62.3738 5.42271 57.5215 2.71065 53.0173 2.49142C52.3895 2.46152 52.3657 2.09051 50.2147 1.19902C48.2332 0.377275 45.2866 -0.20147 42.9609 0.635603C42.6213 0.758251 42.5094 0.71379 42.2097 0.596508C39.874 -0.321052 36.5188 -0.13708 34.2958 1.95637C34.1011 2.14034 34.0329 2.1963 33.911 2.17943C32.952 2.03379 31.8781 2.05142 30.8057 2.23079C23.9497 3.37678 21.4224 6.77184 20.2074 8.40305C19.8433 8.89211 19.5803 9.24473 19.3772 9.29992C18.2749 9.59964 16.8192 10.6613 15.9078 11.4808C10.8869 15.9812 9.537 22.1941 8.8977 22.8464C5.52028 26.3028 3.23365 31.3896 2.78216 36.4542C2.53533 39.2383 2.7032 39.1724 2.69707 39.6254C2.61352 46.4462 7.49951 54.6866 11.7086 59.6715C20.6573 70.2675 36.8093 77.1143 37.9338 79.3105C42.5975 88.4293 43.9536 89.6267 43.6446 90.105C43.1472 90.88 43.8754 92.1402 44.6166 92.7029C44.8635 92.8899 44.8566 92.988 44.819 93.5315C44.7056 95.1596 44.8014 97.8073 44.9493 99.575C45.0221 100.444 45.0168 100.474 44.7592 100.653C44.0264 101.161 43.7113 102.177 44.2962 102.949C44.4135 103.104 44.3951 103.123 44.2134 103.301C43.4239 104.078 43.6155 104.512 41.9475 106.093C41.2883 106.717 40.8529 107.13 41.0092 108.204C41.0675 108.603 41.6309 109.223 42.4964 109.299C43.4354 109.383 44.1337 108.544 44.714 107.68C44.6458 111.893 44.4924 113.519 46.0961 114.143C49.298 115.388 51.7417 114.602 54.5871 113.859C60.7609 112.245 65.6385 110.974 66.6419 109.066C66.865 108.642 66.8918 108.189 66.7216 107.72C66.3345 106.653 65.627 105.212 65.6577 105.029C66.8765 104.715 67.3533 103.257 66.8964 102.361C65.3771 99.381 63.2821 99.8578 63.3404 99.0882C63.4239 97.9974 62.5922 96.8491 62.212 96.7004C61.1687 96.2926 61.1473 96.4329 61.0239 96.1523C58.6046 90.6309 57.8473 90.1158 58.042 89.849C58.5142 89.2036 58.2451 88.1373 57.9032 87.5854C57.1934 86.4417 56.991 86.6655 57.0025 86.4831C57.0516 85.7648 57.2931 83.2659 57.4326 81.8401L57.4364 81.8378ZM44.8083 103.811C44.7922 105.612 44.4994 107.53 42.6313 108.353C41.4615 108.117 41.772 107.279 42.7125 106.56C43.4737 105.979 43.9428 105.164 44.2863 104.569C44.481 104.23 44.6542 103.93 44.8083 103.811ZM52.8202 99.9169C45.0444 101.991 45.5894 103.028 45.1923 102.479C45.0789 102.322 44.97 102.175 44.9784 101.972C45.0068 101.352 45.6415 100.989 46.1689 100.794C53.7301 97.9959 56.0421 97.7644 60.137 97.3183C60.6567 97.2615 61.621 97.1573 62.0395 97.9507C62.1614 98.1814 62.3546 98.4842 62.3822 98.7969C60.0595 98.0656 55.195 99.2829 52.8195 99.9161L52.8202 99.9169ZM45.7956 93.5284C45.8055 93.5246 45.8638 93.5062 46.1451 93.5936C48.4003 94.2988 48.1719 93.0539 48.4586 94.8783C48.7092 96.4666 48.835 97.0599 48.9921 97.772C49.3516 99.3925 49.1293 98.2872 45.9957 99.9797C45.8983 100.033 45.9098 93.7822 45.7956 93.5284ZM50.112 93.5185C53.8865 92.7205 53.7501 92.2583 53.8727 92.6139C54.4967 94.4452 54.5948 94.9113 55.3936 96.7778C55.5699 97.1895 55.484 96.6721 50.2347 98.3117C50.0231 98.3784 50.1695 98.7555 49.3049 93.914C49.2977 93.7645 49.5668 93.6327 50.112 93.5185ZM60.0243 96.3072C59.802 96.3286 58.8032 96.311 56.8784 96.6889C56.7887 96.705 56.6676 96.7012 56.5556 96.7165C56.374 96.7418 56.374 96.7426 56.318 96.5824C55.9186 95.4402 54.8194 92.2843 54.7903 92.2115C54.6876 91.9631 56.0796 91.5385 57.2785 90.8102C57.3559 90.8455 57.3766 90.9544 59.0623 94.285C59.7821 95.7077 60.035 96.2083 60.0243 96.3072ZM57.2731 89.34C57.2325 89.3185 57.1903 89.2902 57.1405 89.2572C56.5403 88.8632 55.2901 88.0422 48.1205 90.5067C45.745 91.3231 45.8393 92.2184 45.6668 92.2015C45.2245 92.1586 44.0624 90.6401 44.6964 90.1679C46.2509 89.0127 52.8486 87.071 56.0934 87.2167C56.689 87.2427 57.6043 88.3282 57.2731 89.34ZM15.0056 26.0843C15.1773 37.187 21.8217 51.3061 27.4597 60.0225C28.9767 62.3674 35.2157 71.0747 38.1937 74.5057C38.2297 74.5479 38.2972 74.6253 38.298 74.6468C38.2911 74.6782 38.0458 74.8614 38.0205 74.8806C37.8342 75.0224 37.641 75.168 37.5046 75.3857C36.6276 75.3796 21.8118 60.8312 16.5003 52.6077C12.8792 47.0011 10.8179 42.3413 9.81679 37.499L9.81296 37.4844C6.60035 21.9104 16.7755 11.0645 18.6789 10.7081C18.3278 11.9997 14.84 15.3419 15.0056 26.0843ZM54.6094 79.3143C54.6623 81.8132 54.6937 82.9539 54.581 86.1765C54.5789 86.2278 54.4162 86.2769 54.0927 86.3252C54.0728 86.3282 52.7451 86.5452 52.7252 86.5429C52.6815 86.4371 52.8126 82.7155 52.3304 78.2794C52.322 78.2028 52.2162 77.2983 52.2783 77.2262C52.2936 77.2155 52.3956 77.2208 52.4147 77.2216C53.2457 77.253 53.852 76.9587 54.555 76.6889C54.5726 76.7717 54.5534 76.6812 54.6094 79.3143ZM50.04 71.4081C50.4301 71.6649 50.6287 71.4748 50.6616 71.6956C51.3891 76.6053 51.3531 76.5486 51.1216 76.7249C50.3021 77.3481 49.0849 77.9659 48.0561 77.9222C46.2808 77.8617 46.3766 78.1407 45.7994 76.268C44.5906 72.3494 44.3598 72.5181 44.5814 72.2873C46.3268 70.4714 48.1635 70.1755 50.04 71.4081ZM46.6664 78.7417C48.014 78.7785 48.6127 79.2047 51.0986 77.8824C51.1737 77.8425 51.2327 77.7973 51.2803 77.7605C51.3684 77.6923 51.3676 77.5451 51.4903 79.0368C51.7088 81.6737 51.9035 83.3211 52.0368 86.2807C52.0606 86.8204 52.0491 86.6778 50.2347 87.1178C49.4045 87.3178 49.4099 87.3815 49.3485 87.2458C49.2926 87.1239 46.6733 78.826 46.6656 78.7409L46.6664 78.7417ZM43.2108 79.6907C44.9846 79.6163 45.4936 78.7754 45.63 78.7662C45.6476 78.7785 48.1573 86.3773 48.605 87.5279C48.4785 87.6183 48.4923 87.6114 48.1558 87.7126C45.9727 88.3711 46.0516 88.5114 45.952 88.2944C43.4469 82.8259 42.1476 79.9375 41.9897 79.4914C42.1207 79.4975 42.4672 79.7175 43.2108 79.6907ZM45.1448 78.0242C44.1567 78.5861 42.8704 79.1418 41.6792 78.4366C41.368 78.2511 41.4607 78.2772 39.9483 75.0408C39.8625 74.8599 39.9322 75.0048 40.5555 74.1263C41.1442 73.2984 42.6251 72.0788 43.5458 72.4491C43.6646 72.4966 43.7343 72.7258 44.6159 75.516C45.3571 77.8624 45.4284 77.8617 45.144 78.0234L45.1448 78.0242ZM54.3763 75.8066C53.6481 76.186 53.3354 76.1944 52.8632 76.1952C52.1342 76.1967 52.1633 76.242 52.1005 75.5076C51.9878 74.2022 51.8506 73.5797 51.6198 72.4107C51.4021 71.3207 51.3929 71.3123 51.4719 71.2755C52.5864 70.7565 53.018 71.0241 53.6305 71.5024C54.6262 72.2804 54.4315 74.8507 54.5251 75.4723C54.5603 75.7008 54.5542 75.713 54.3763 75.8066ZM50.2508 70.3756C48.2547 68.9643 45.8071 69.6849 44.3867 71.1475C43.5481 70.4008 35.2387 49.1682 31.455 32.022C29.9985 25.4274 29.1523 15.2698 31.5592 8.3471C32.1955 6.51351 33.0962 4.98654 34.571 3.24187C35.5437 2.08898 37.5636 1.14076 39.7237 1.19825C44.1828 1.29867 46.963 5.84738 48.6663 9.26006C51.5064 14.9509 52.4776 23.5692 52.9613 29.5568C54.4645 48.1594 50.657 69.0165 50.2508 70.3756ZM37.5881 77.1626C37.5996 77.0468 37.7024 76.1806 38.9304 75.3873C39.0476 75.3114 39.1665 75.2317 39.1964 75.2416C39.2638 75.2616 40.58 78.4343 40.5938 78.491C40.5072 78.5155 40.0925 78.5109 40.0074 78.5125C39.421 78.5225 38.2604 78.2733 37.8319 77.8632C37.6418 77.6808 37.5598 77.4454 37.5881 77.1626ZM41.1242 79.7497C42.4672 83.0221 44.829 87.5708 45.3954 88.6831C45.2797 88.7797 45.2912 88.7659 44.4334 89.2289C44.2395 89.3339 44.2556 89.3584 43.601 88.1013C43.1993 87.3309 39.2968 80.1483 38.9089 79.3634C41.1242 79.7045 40.8437 79.0644 41.1235 79.7489L41.1242 79.7497ZM56.6676 74.8859C56.2368 75.3221 55.3752 75.4463 55.3583 75.2616C55.3414 75.0776 55.4112 75.0285 55.231 73.6211C55.0954 72.5656 55.113 72.6269 55.2035 72.6476C56.2383 72.8967 56.1394 73.1505 56.6009 73.6441C56.9044 73.9684 56.8998 74.6506 56.6676 74.8859ZM56.2406 86.2562C55.9907 86.2477 55.7998 86.2477 55.6542 86.2477C55.4587 86.2477 55.3046 86.2477 55.2809 86.2232C55.2333 86.1427 55.3514 84.3896 55.3698 84.1842C55.4365 83.4399 55.494 82.7967 55.4334 76.4926C55.4265 75.782 55.9846 76.498 57.0784 75.6027C57.1551 75.5536 56.5219 85.6675 56.2406 86.2562ZM56.5005 72.3686C56.4238 72.3433 56.1486 71.8742 55.4227 71.7492C55.3905 71.7439 55.3522 71.7369 55.3307 71.7308C55.3706 71.6112 55.4503 71.776 58.3049 64.4586C62.3316 54.137 64.3055 48.1149 65.5595 37.7428C66.1919 32.5187 66.0969 24.2676 64.3959 18.497C62.2273 11.1373 59.4302 8.36319 55.8887 4.85086C55.3016 4.26828 54.8777 4.01379 54.5879 3.7455C62.9349 6.1218 68.6196 12.4696 70.9929 20.8488C72.5167 26.2292 72.2071 30.6023 72.1933 30.7388C72.1933 30.7388 72.1894 30.7541 72.1894 30.7618C72.1894 46.2722 64.4174 59.0551 59.7736 66.6931C56.4391 72.1769 56.6576 72.2881 56.4997 72.3694L56.5005 72.3686ZM65.0444 106.856C64.4166 106.65 63.6347 106.393 56.3264 108.168C49.0082 109.946 46.7369 111.046 45.9911 111.407C45.9075 111.448 45.8316 111.485 45.7849 111.503C45.7849 111.447 45.7933 111.377 45.7864 111.309C45.617 104.893 45.7458 107.718 45.6959 103.996C45.6867 103.401 45.9857 103.152 48.7361 102.253C48.6724 102.505 48.2493 103.158 47.7687 104.311C47.121 105.868 48.2677 107.152 49.6444 106.93C50.5689 106.784 51.5738 105.575 51.5355 104.178C51.4865 102.299 50.9077 101.745 50.9989 101.562C51.038 101.485 51.1599 101.484 53.2917 100.884C55.3836 100.295 55.1866 100.36 55.1245 100.581C55.0869 100.709 55.0823 100.741 55.0593 100.86C54.8462 101.957 54.5228 103.613 55.1751 104.587C55.6143 105.241 56.4667 105.293 57.1183 105.122C59.0002 104.631 58.9626 101.494 57.9209 99.8118C58.2206 99.7015 62.1124 99.2009 62.5416 100.165C62.675 100.465 65.0927 106.122 65.3687 106.94C65.246 106.922 65.151 106.891 65.0444 106.856ZM56.2897 104.259C55.5062 104.069 55.691 102.634 55.7891 101.863C56.0014 100.197 55.9761 100.209 56.1356 100.161C56.6837 99.995 56.9504 99.9582 57.2041 100.307C58.1754 101.651 58.0205 104.677 56.2897 104.259ZM50.6049 104.098C50.5735 104.791 50.5666 105.244 49.8169 105.838C49.1469 106.368 48.2869 105.546 48.5337 104.944C49.4421 102.726 49.5593 102.801 49.6989 102.039C49.7142 101.953 49.7671 101.873 49.8537 101.873C50.26 101.873 50.6425 103.389 50.6049 104.098ZM63.6447 100.461C65.0076 101.103 65.8232 101.947 66.1345 103.036C66.1199 103.51 65.765 104.04 65.3549 104.197C65.269 104.231 65.2713 104.252 65.1494 103.932C64.9915 103.517 63.6501 100.479 63.6439 100.462L63.6447 100.461Z" fill="black"/>
</svg>
