<svg width="20" height="18" viewBox="0 0 20 18" fill="none" xmlns="http://www.w3.org/2000/svg">
<path fill-rule="evenodd" clip-rule="evenodd" d="M9.75 0C9.94891 0 10.1397 0.0790178 10.2803 0.21967C10.421 0.360322 10.5 0.551088 10.5 0.75V17.25C10.5 17.4489 10.421 17.6397 10.2803 17.7803C10.1397 17.921 9.94891 18 9.75 18C9.55109 18 9.36032 17.921 9.21967 17.7803C9.07902 17.6397 9 17.4489 9 17.25V0.75C9 0.551088 9.07902 0.360322 9.21967 0.21967C9.36032 0.0790178 9.55109 0 9.75 0ZM6.75 3C6.94891 3 7.13968 3.07902 7.28033 3.21967C7.42098 3.36032 7.5 3.55109 7.5 3.75V14.25C7.5 14.4489 7.42098 14.6397 7.28033 14.7803C7.13968 14.921 6.94891 15 6.75 15C6.55109 15 6.36032 14.921 6.21967 14.7803C6.07902 14.6397 6 14.4489 6 14.25V3.75C6 3.55109 6.07902 3.36032 6.21967 3.21967C6.36032 3.07902 6.55109 3 6.75 3ZM12.75 3C12.9489 3 13.1397 3.07902 13.2803 3.21967C13.421 3.36032 13.5 3.55109 13.5 3.75V14.25C13.5 14.4489 13.421 14.6397 13.2803 14.7803C13.1397 14.921 12.9489 15 12.75 15C12.5511 15 12.3603 14.921 12.2197 14.7803C12.079 14.6397 12 14.4489 12 14.25V3.75C12 3.55109 12.079 3.36032 12.2197 3.21967C12.3603 3.07902 12.5511 3 12.75 3ZM3.75 5.25C3.94891 5.25 4.13968 5.32902 4.28033 5.46967C4.42098 5.61032 4.5 5.80109 4.5 6V12C4.5 12.1989 4.42098 12.3897 4.28033 12.5303C4.13968 12.671 3.94891 12.75 3.75 12.75C3.55109 12.75 3.36032 12.671 3.21967 12.5303C3.07902 12.3897 3 12.1989 3 12V6C3 5.80109 3.07902 5.61032 3.21967 5.46967C3.36032 5.32902 3.55109 5.25 3.75 5.25ZM15.75 5.25C15.9489 5.25 16.1397 5.32902 16.2803 5.46967C16.421 5.61032 16.5 5.80109 16.5 6V12C16.5 12.1989 16.421 12.3897 16.2803 12.5303C16.1397 12.671 15.9489 12.75 15.75 12.75C15.5511 12.75 15.3603 12.671 15.2197 12.5303C15.079 12.3897 15 12.1989 15 12V6C15 5.80109 15.079 5.61032 15.2197 5.46967C15.3603 5.32902 15.5511 5.25 15.75 5.25ZM0.75 6.75C0.948912 6.75 1.13968 6.82902 1.28033 6.96967C1.42098 7.11032 1.5 7.30109 1.5 7.5V10.5C1.5 10.6989 1.42098 10.8897 1.28033 11.0303C1.13968 11.171 0.948912 11.25 0.75 11.25C0.551088 11.25 0.360322 11.171 0.21967 11.0303C0.0790178 10.8897 0 10.6989 0 10.5V7.5C0 7.30109 0.0790178 7.11032 0.21967 6.96967C0.360322 6.82902 0.551088 6.75 0.75 6.75ZM18.75 6.75C18.9489 6.75 19.1397 6.82902 19.2803 6.96967C19.421 7.11032 19.5 7.30109 19.5 7.5V10.5C19.5 10.6989 19.421 10.8897 19.2803 11.0303C19.1397 11.171 18.9489 11.25 18.75 11.25C18.5511 11.25 18.3603 11.171 18.2197 11.0303C18.079 10.8897 18 10.6989 18 10.5V7.5C18 7.30109 18.079 7.11032 18.2197 6.96967C18.3603 6.82902 18.5511 6.75 18.75 6.75Z" fill="black"/>
</svg>
