<svg width="209" height="209" viewBox="0 0 209 209" fill="none" xmlns="http://www.w3.org/2000/svg">
<path fill-rule="evenodd" clip-rule="evenodd" d="M104.358 88.1515C104.027 87.6595 103.612 87.2296 103.131 86.8813C102.842 86.8876 102.557 86.9542 102.295 87.0767C102.033 87.1993 101.8 87.3751 101.609 87.5931C101.423 87.8559 101.708 88.272 101.894 88.5567C102.091 88.8639 102.318 89.1501 102.573 89.4108C102.912 89.6407 103.449 89.2027 103.832 88.918C104.215 88.6333 104.5 88.4362 104.358 88.1515ZM102.88 88.6552C102.715 88.4472 102.409 88.053 102.266 87.823C102.496 87.5698 102.761 87.3521 103.055 87.177C103.055 87.177 103.46 87.8997 103.602 88.1734C103.307 88.3815 103.066 88.5457 102.88 88.6552ZM105.19 90.0568C105.059 89.9035 103.996 90.3196 103.679 90.7686C103.493 91.0314 103.767 91.4475 103.964 91.7431C104.152 92.0526 104.38 92.3361 104.643 92.5863C104.702 92.633 104.775 92.6598 104.851 92.6629C105.201 92.6629 106.197 91.8855 106.351 91.7103C106.401 91.6621 106.436 91.5994 106.45 91.5308C106.463 91.4622 106.456 91.391 106.427 91.327C106.093 90.8344 105.674 90.4044 105.19 90.0568ZM104.949 91.8307C104.726 91.5647 104.518 91.2869 104.325 90.9985C104.56 90.7514 104.825 90.5344 105.113 90.3525C105.113 90.3525 105.529 91.0861 105.672 91.3599C105.332 91.5789 105.135 91.7212 104.949 91.8307ZM111.234 98.8606C113.764 97.0101 110.282 93.5608 108.322 96.1012C108.117 96.4418 108.009 96.8317 108.009 97.2291C108.009 97.6264 108.117 98.0163 108.322 98.3569C108.641 98.8097 109.128 99.117 109.674 99.2115C110.22 99.3059 110.781 99.1797 111.234 98.8606ZM108.716 96.8349C108.847 94.9077 112.067 95.488 111.377 97.5247C111.261 97.8498 111.028 98.1199 110.723 98.2817C110.419 98.4434 110.064 98.4851 109.73 98.3985C109.396 98.3119 109.107 98.1033 108.919 97.8139C108.731 97.5244 108.659 97.1751 108.716 96.8349ZM104.96 87.7902C105.022 87.8312 105.094 87.854 105.168 87.8559C105.529 87.8559 106.515 87.0894 106.668 86.9142C106.721 86.8652 106.757 86.8005 106.771 86.7296C106.785 86.6587 106.776 86.5853 106.745 86.52C106.411 86.0334 105.996 85.6075 105.519 85.2607C105.23 85.2733 104.948 85.3427 104.687 85.4648C104.425 85.587 104.191 85.7595 103.996 85.9725C103.81 86.2353 104.095 86.6623 104.281 86.9361C104.474 87.2458 104.702 87.5324 104.96 87.7902ZM105.442 85.6002C105.442 85.6002 105.847 86.3229 105.989 86.5966C105.595 86.8704 105.42 86.9799 105.267 87.0784C105.091 86.8594 104.796 86.4762 104.643 86.2462C104.868 85.9722 105.138 85.7389 105.442 85.5564V85.6002ZM108.738 90.0897C108.788 90.0411 108.822 89.9777 108.833 89.9088C108.845 89.8399 108.835 89.769 108.804 89.7064C108.472 89.2144 108.057 88.7845 107.577 88.4362C107.289 88.4488 107.006 88.5182 106.745 88.6403C106.484 88.7625 106.249 88.935 106.055 89.148C105.869 89.4108 106.165 89.8488 106.34 90.1225C106.538 90.4247 106.766 90.7071 107.019 90.9657C107.082 91.006 107.153 91.0322 107.227 91.0423C107.599 91.0533 108.574 90.2649 108.738 90.0897ZM107.325 90.2101C107.107 89.9432 106.902 89.6655 106.712 89.3779C106.944 89.1273 107.209 88.9098 107.5 88.7319C107.5 88.7319 107.906 89.4546 108.048 89.7283C107.785 89.9473 107.5 90.1116 107.325 90.2649V90.2101ZM163.63 87.1441C163.51 87.2317 162.886 87.6916 162.294 88.2391C161.703 88.7866 159.82 90.5934 159.666 91.4146C159.655 91.5648 159.678 91.7156 159.733 91.8558C159.788 91.9961 159.874 92.1222 159.984 92.2249C160.269 92.5315 161.396 93.4951 161.396 93.0352C161.369 92.9568 161.324 92.8857 161.265 92.8272C160.927 92.5044 160.636 92.1358 160.4 91.7322C160.203 91.338 162.327 89.3232 163.849 87.3522C164.013 87.2098 163.794 86.9799 163.63 87.1441ZM160.63 94.7653C160.477 94.9843 160.323 95.4333 160.63 95.4661C160.63 95.4661 160.904 95.1486 161.243 95.1048C161.889 95.1048 161.856 96.0793 161.845 96.7363C161.845 96.9225 162.097 96.9991 162.141 96.813C162.438 96.4014 162.571 95.8938 162.513 95.3895C162.294 94.4697 161.079 94.0864 160.63 94.7653ZM161.101 88.261C161.235 88.3126 161.383 88.3107 161.516 88.2557C161.648 88.2006 161.755 88.0967 161.812 87.9654L162.075 87.3631C162.135 87.2309 162.139 87.0807 162.088 86.9452C162.036 86.8098 161.934 86.7002 161.802 86.6404C161.737 86.6092 161.667 86.5913 161.595 86.5877C161.524 86.584 161.452 86.5948 161.385 86.6193C161.317 86.6438 161.256 86.6815 161.203 86.7303C161.151 86.7791 161.108 86.8379 161.079 86.9032L160.805 87.5383C160.776 87.6051 160.761 87.6769 160.761 87.7496C160.76 87.8223 160.774 87.8944 160.801 87.9616C160.829 88.0289 160.87 88.09 160.921 88.1414C160.972 88.1928 161.033 88.2335 161.101 88.261ZM165.262 90.5058C165.347 90.558 165.446 90.5846 165.546 90.5824C166.072 90.5824 166.017 90.1116 166.302 89.8707C166.412 89.7763 166.481 89.6419 166.492 89.4972C166.503 89.3524 166.457 89.2091 166.362 89.0987C166.268 88.9883 166.133 88.92 165.989 88.9087C165.844 88.8974 165.701 88.9441 165.59 89.0385C165.185 89.3779 164.725 90.1773 165.262 90.5058ZM86.4655 62.9994C93.7692 63.4702 111.18 62.5723 111.18 61.7182C111.081 23.0647 111.311 25.0686 110.862 24.981C103.416 23.6013 100.536 23.01 95.4664 23.6889C88.557 24.6306 85.9837 26.4702 74.6614 26.722C68.0914 26.8753 68.2666 26.5687 68.2119 26.8315C68.0257 27.7075 67.8615 65.0908 68.5295 65.7807C69.7997 67.0618 80.6073 62.6161 86.4655 62.9994ZM68.4747 26.9739C72.6473 27.1462 76.8265 27.073 80.9905 26.7549C88.7541 26.065 94.5028 23.3494 101.796 24.0721C103.569 24.2473 108.716 25.1671 110.49 25.5394V61.3897C109.077 61.543 102.923 62.1672 96.2549 62.3862C85.4691 62.7475 86.8926 61.7292 81.0562 62.8461C76.1068 63.7878 70.1062 65.7478 69.0112 65.3427C68.5732 62.9446 68.3652 28.6383 68.4747 26.9739Z" fill="black"/>
<path fill-rule="evenodd" clip-rule="evenodd" d="M82.7535 54.3379C84.9435 53.9546 99.5508 45.4903 100.492 43.5412C100.554 43.4529 100.587 43.3478 100.587 43.24C100.587 43.1323 100.554 43.0272 100.492 42.9389C99.3975 41.7563 83.6076 34.1789 81.8118 34.1242C80.7168 34.1242 81.2862 51.9617 82.0965 53.9656C82.1395 54.0986 82.2309 54.2107 82.3525 54.2796C82.4742 54.3485 82.6173 54.3693 82.7535 54.3379ZM81.768 34.4198C83.4981 34.5184 98.3901 42.1505 99.8355 43.3112C98.2477 45.3698 85.1078 53.1115 82.6002 53.6918C81.2643 49.7498 81.8775 34.4198 81.768 34.4198ZM43.0598 35.7776C43.0474 35.9575 43.0254 36.1366 42.9941 36.3142C42.9799 36.3847 42.98 36.4574 42.9945 36.5279C43.009 36.5985 43.0375 36.6653 43.0784 36.7246C43.1192 36.7839 43.1716 36.8343 43.2324 36.8729C43.2931 36.9115 43.361 36.9375 43.4321 36.9493C43.5727 36.9751 43.7179 36.9449 43.8366 36.8651C43.9553 36.7853 44.0381 36.6622 44.0672 36.5222C44.111 36.3054 44.1403 36.0859 44.1548 35.8652C44.1605 35.7933 44.152 35.721 44.1298 35.6524C44.1076 35.5837 44.0721 35.5201 44.0254 35.4652C43.9786 35.4103 43.9215 35.3652 43.8572 35.3323C43.793 35.2995 43.723 35.2797 43.6511 35.2739C43.5792 35.2682 43.5068 35.2766 43.4382 35.2988C43.3696 35.321 43.306 35.3565 43.2511 35.4033C43.1962 35.4501 43.151 35.5072 43.1182 35.5714C43.0854 35.6357 43.0655 35.7057 43.0598 35.7776ZM43.2897 41.6578C43.2897 41.6578 42.2714 40.8365 42.1947 40.7489C42.0651 40.6704 41.944 40.5787 41.8334 40.4752C41.8334 40.2562 41.3516 40.2014 41.6363 40.9898C41.8334 41.5373 42.8846 42.2272 43.3773 41.9206C43.4122 41.9089 43.441 41.884 43.4574 41.8511C43.4738 41.8182 43.4765 41.7802 43.4649 41.7454C43.4533 41.7105 43.4283 41.6817 43.3954 41.6653C43.3626 41.6488 43.3246 41.6461 43.2897 41.6578Z" fill="black"/>
<path fill-rule="evenodd" clip-rule="evenodd" d="M54.4696 91.1628C55.2908 90.5168 54.0425 86.5638 52.4767 81.8553C59.7365 84.4505 65.77 85.5783 73.2817 84.111C74.6614 84.33 75.9973 84.5162 77.2456 84.6585C77.4646 84.6585 77.7274 84.3738 78.0778 83.7387C79.1869 84.4759 80.5222 84.7942 81.8446 84.6366C82.852 84.3519 86.2246 82.6109 86.5093 81.7239C86.5445 81.6371 86.5618 81.544 86.5604 81.4503C86.559 81.3567 86.5388 81.2642 86.5011 81.1784C86.4633 81.0927 86.4087 81.0154 86.3405 80.9511C86.2723 80.8868 86.192 80.8368 86.1041 80.8041C89.1702 80.0773 92.2788 79.5434 95.4116 79.2054C104.752 78.1761 121.757 81.2531 127.802 80.8479C136.233 80.2676 153.633 72.0879 154.355 70.1388C154.947 68.562 158.024 4.98634 155.527 1.15384C155.431 1.00319 155.292 0.884967 155.128 0.814634C154.964 0.744302 154.783 0.725136 154.607 0.759643C151.07 0.858193 133.419 7.39534 126.838 7.71289C118.921 8.13994 103.657 4.74544 94.1962 5.78569C80.5196 7.30774 74.4643 11.6439 64.8064 11.4249C53.1337 11.1074 44.0014 4.18699 32.7667 2.75254C25.7915 1.86559 16.1993 1.96414 10.1002 4.36219C9.43848 4.56634 8.83188 4.91832 8.32628 5.39149C7.47218 6.58504 7.85543 35.3507 7.86638 36.4895C7.47218 35.6573 6.77138 35.9201 6.38813 36.7742C5.63258 38.6138 5.86253 43.2785 5.82968 43.8807C5.36067 45.2686 4.96231 46.6793 4.63613 48.1074H3.54113C3.49185 48.1077 3.44396 48.1239 3.40453 48.1534C3.3651 48.183 3.33621 48.2245 3.32213 48.2717C1.13213 54.9074 -1.79152 68.5839 3.12503 73.6209C4.68069 75.3248 6.77727 76.4389 9.05993 76.7745C9.09137 77.4117 9.20925 78.0416 9.41033 78.647C9.89213 79.4135 11.6003 78.7674 14.5568 77.8695C13.4459 80.7128 12.4811 83.6111 11.666 86.5529C11.3375 87.6479 9.65123 94.1522 10.0126 94.8749C10.3739 95.5976 11.4908 95.6852 12.2026 95.8604C10.1173 109.141 9.70159 122.63 10.9652 136.014C11.02 136.594 11.6113 137.109 12.6187 137.438C12.4106 148.19 14.2174 168.01 14.7101 168.568C14.8751 168.682 15.0614 168.76 15.2576 168.798C15.2576 169.74 15.2029 171.372 15.2576 172.543C15.2375 172.607 15.2375 172.676 15.2576 172.74C15.2481 173.141 15.3305 173.538 15.4985 173.901C16.4621 175.138 24.5213 175.16 24.9265 174.843C25.0778 174.743 25.2021 174.607 25.288 174.448C25.374 174.288 25.419 174.11 25.419 173.928C25.419 173.747 25.374 173.569 25.288 173.409C25.2021 173.25 25.0778 173.114 24.9265 173.014C24.389 172.682 23.8206 172.404 23.2292 172.182C22.2675 171.808 21.2635 171.555 20.2399 171.426C20.2399 170.78 20.2399 169.86 20.3275 169.116C20.4416 169.122 20.5542 169.088 20.6461 169.02C20.738 168.952 20.8034 168.854 20.8312 168.744C21.4444 167.057 25.6382 146.657 27.1165 138.697C30.8723 138.697 34.9019 138.478 38.7125 138.204C39.479 150.129 42.3041 166.992 42.6983 167.353C42.8824 167.466 43.0872 167.54 43.3006 167.572V170.452C43.2789 170.516 43.2789 170.585 43.3006 170.649C43.291 171.049 43.3735 171.446 43.5415 171.81C44.4941 173.047 52.5533 173.069 52.9694 172.751C53.1208 172.652 53.245 172.516 53.331 172.356C53.4169 172.197 53.4619 172.018 53.4619 171.837C53.4619 171.656 53.4169 171.477 53.331 171.318C53.245 171.158 53.1208 171.022 52.9694 170.923C52.4343 170.587 51.8654 170.308 51.2722 170.09C50.3097 169.719 49.306 169.466 48.2828 169.335V167.714C48.3725 167.695 48.4569 167.656 48.5306 167.602C48.6042 167.547 48.6653 167.477 48.7099 167.397C50.0129 164.21 51.9949 145.595 51.9949 136.737C53.4622 136.474 57.6122 135.707 58.4444 134.547C59.6051 132.784 55.8274 108.88 53.0351 92.1812C53.5324 91.8695 54.0113 91.5295 54.4696 91.1628ZM77.2237 84.111C69.0878 83.1036 56.8676 80.5085 50.3852 75.5372C47.4068 66.0654 47.9215 63.2403 49.3997 52.9692C53.2103 56.4623 55.9697 60.5357 58.4225 63.4922C60.0431 65.4084 77.6836 78.417 79.3808 79.9829C78.7365 81.3967 78.0164 82.7748 77.2237 84.111ZM26.9194 24.8606C27.2309 25.2419 27.6537 25.5165 28.1287 25.646C28.6037 25.7756 29.1073 25.7536 29.5693 25.5833C29.4598 26.087 29.4598 26.2184 29.5693 26.4045C28.7093 26.868 27.9617 27.5147 27.3793 28.2989C26.131 30.3465 26.3171 30.0399 26.4047 31.1349C26.0401 31.3772 25.7373 31.7014 25.5205 32.0817C25.3038 32.462 25.1791 32.8878 25.1564 33.3249C25.071 34.0546 25.0969 34.793 25.2331 35.5149C25.318 35.9808 25.505 36.422 25.7806 36.807C25.9869 37.1048 26.2533 37.356 26.5626 37.5446C26.8719 37.7332 27.2172 37.855 27.5764 37.902C27.4969 38.3732 27.4969 38.8544 27.5764 39.3255C27.9112 40.7199 28.6776 41.9729 29.7664 42.9062C30.1883 43.2477 30.7032 43.4543 31.2442 43.4992C31.7851 43.5442 32.3271 43.4253 32.7995 43.158C32.69 43.7493 32.5148 44.6582 32.3506 45.5999C31.4726 45.5982 30.5952 45.6457 29.7226 45.7422C28.8575 44.8772 22.1561 45.8736 22.1561 48.1074C19.6644 49.4692 17.4208 51.2426 15.5204 53.3525C14.951 41.7455 14.294 20.9624 14.2064 20.9186C15.3014 20.4258 22.0357 19.944 28.7261 20.6448C28.3268 20.7979 27.9623 21.0296 27.654 21.326C27.3458 21.6225 27.1002 21.9778 26.9318 22.3709C26.7633 22.7639 26.6754 23.1868 26.6733 23.6145C26.6712 24.0421 26.7548 24.4659 26.9194 24.8606ZM39.6542 23.9955C38.3402 24.5211 31.9126 26.3169 30.3248 26.2841C30.1168 25.9884 30.1277 26.1198 30.2482 25.649C35.8436 24.9153 38.4826 21.9369 39.6542 23.9955ZM45.7643 34.9455C45.8519 35.6463 46.6951 38.351 46.7717 39.1175C46.5199 39.3036 45.7862 39.3803 45.5891 39.5774C45.3877 40.1337 45.2696 40.7167 45.2387 41.3075C44.8993 43.3442 43.202 43.8369 41.1434 43.9245C40.3331 43.9245 40.5959 43.9245 40.2565 47.0453C37.9392 46.2223 35.5091 45.7607 33.0514 45.6765C33.2594 44.5158 33.4018 43.7822 33.4894 43.3004C33.5756 43.4611 33.721 43.5818 33.8948 43.637C34.0686 43.6922 34.257 43.6775 34.4201 43.596C35.2085 43.1909 35.0114 42.3587 34.6829 41.5484C33.9931 39.8511 34.4311 39.1832 34.0588 38.9751C33.5584 38.6837 33.1373 38.2738 32.8324 37.7816C32.2192 36.6866 32.8324 35.5916 33.5332 35.5916C34.8581 35.5916 34.9238 36.9713 35.2961 37.7816C35.8436 39.0408 37.2562 37.6064 37.0919 34.9674C37.289 34.836 38.1103 34.9017 38.4935 34.6389C38.8768 34.3761 39.0848 33.6425 39.3914 33.2811C39.8348 33.4618 40.3144 33.536 40.7917 33.498C41.2689 33.46 41.7307 33.3107 42.1399 33.0621C42.3506 32.9108 42.5249 32.7143 42.65 32.4869C42.775 32.2596 42.8476 32.0072 42.8626 31.7481C43.0843 31.8979 43.3406 31.9884 43.6072 32.0109C44.168 31.9943 44.7011 31.7631 45.0964 31.3649C45.4015 31.6048 45.6837 31.8724 45.9395 32.1642C46.3337 34.0914 45.6877 34.3214 45.7643 34.9346V34.9455ZM25.255 46.2678C26.561 45.9866 27.906 45.9348 29.2298 46.1145C29.8419 47.4132 30.9096 48.4419 32.2301 49.0053C29.9306 50.615 24.9922 49.7499 25.255 46.2678ZM29.8868 46.0817C34.1954 45.6334 38.5439 46.3916 42.4465 48.2717C39.6104 50.2865 36.2488 49.8923 33.0076 48.6111C31.6975 48.1698 30.5898 47.272 29.8868 46.0817ZM40.9135 47.2752C41.012 46.3992 41.0887 45.4685 41.1653 44.5815C43.5634 44.4611 45.4796 43.7712 45.8629 41.3951C45.8629 41.1213 45.9943 40.3001 46.049 39.9935C47.5711 39.4679 47.5492 39.6431 47.0564 37.8035C47.0564 37.913 46.3118 35.2959 46.2461 34.7484C46.3896 34.4452 46.4786 34.119 46.5089 33.7848C46.7827 33.9381 47.1112 33.6206 47.2645 33.1497C47.7025 31.7372 46.6403 31.2882 46.6513 30.7845C46.7805 30.1514 46.7466 29.4957 46.5527 28.8792C46.4653 28.3488 46.2619 27.8442 45.9572 27.4014C45.6525 26.9585 45.2539 26.5882 44.7898 26.3169C44.5927 26.2184 44.0342 26.0103 43.9904 25.9665C43.6072 25.5723 43.5634 24.4992 41.5705 24.1269C41.0449 24.0284 40.4755 24.1269 40.2455 24.0284C40.1112 23.6542 39.8572 23.3347 39.5228 23.1195C38.9096 22.7253 38.833 22.9881 39.0629 22.7363C45.2278 24.2145 53.2979 26.295 57.4042 27.3791C57.3494 29.9085 56.8786 49.8704 56.2325 60.1524C54.2015 57.4381 51.9332 54.9097 49.4545 52.5969C49.7392 50.6369 44.3518 46.8372 42.7312 48.0746C42.1399 47.768 41.5267 47.5599 40.9135 47.2752ZM48.9179 52.356C48.6332 53.9328 48.4471 54.8198 48.1295 56.9879C47.3054 57.0908 46.4689 56.9631 45.7131 56.619C44.9572 56.2749 44.3116 55.7279 43.8481 55.0388C43.5686 53.968 43.6742 52.8331 44.1466 51.8323C44.619 50.8315 45.428 50.0286 46.4323 49.5638C47.801 50.4617 49.0274 51.699 48.9179 52.356ZM49.7501 76.0299C47.2535 76.9059 43.421 75.7671 43.7167 72.7997C43.745 71.7053 44.1968 70.6646 44.977 69.8967C45.7572 69.1287 46.8049 68.6935 47.8996 68.6825C48.3805 71.1639 48.9983 73.6168 49.7501 76.0299ZM80.9467 75.1977C81.0233 75.6576 81.2642 77.8367 81.2752 78.4827C81.2752 78.6579 81.2752 78.5922 81.1219 78.636C80.6743 78.7479 80.2211 78.8356 79.7641 78.8988C79.567 77.8695 79.5232 77.4644 79.2166 75.8766C80.6182 75.2744 80.7386 75.2744 80.9795 75.1868L80.9467 75.1977ZM85.6114 81.7677C84.4104 82.7221 83.0793 83.5001 81.6584 84.0782C80.4797 84.2398 79.2804 84.013 78.242 83.4321C78.5158 82.9065 78.8443 82.2167 79.2494 81.3735C79.5779 81.4721 79.8188 81.3735 80.1911 81.0888C80.87 80.607 82.1183 79.742 81.6913 80.5523C81.3847 81.1326 80.8481 81.5487 81.0124 81.9429C81.1766 82.3371 81.7022 82.2057 82.1074 82.151C83.177 81.9753 84.2341 81.7302 85.2719 81.4173C85.4471 81.3626 86.2027 81.264 85.6442 81.7568L85.6114 81.7677ZM90.3418 76.6103C90.3418 76.7855 90.3418 76.7198 90.1775 76.7526C89.7211 76.8274 89.2602 76.8713 88.7978 76.884C88.6993 75.8766 88.6664 75.1758 88.5241 73.8399C89.1066 73.6517 89.6988 73.4945 90.298 73.3691C90.3746 73.8399 90.4075 76.0299 90.3746 76.5993L90.3418 76.6103ZM100.12 75.8547C100.12 76.0299 100.12 75.9642 99.9449 75.9861C99.4854 76.0135 99.0247 76.0135 98.5652 75.9861V72.9311C100.054 72.6354 100.186 72.6573 100.372 72.6245C100.427 73.1172 100.262 75.2634 100.12 75.8547ZM110.512 76.5774C110.512 76.7417 110.512 76.6869 110.315 76.676C109.856 76.6544 109.398 76.6032 108.946 76.5227C109.012 75.8657 109.209 74.5626 109.318 73.4895C110.796 73.3691 110.829 73.4129 111.158 73.391C111.136 73.8399 110.72 76.0299 110.555 76.5774H110.512ZM131.963 76.884C131.963 77.0483 131.963 76.9935 131.788 77.0154C131.329 77.0639 130.869 77.0858 130.408 77.0811C130.408 76.1175 130.408 75.4715 130.287 74.0261C131.93 73.6209 131.809 73.6976 132.083 73.6319C132.138 74.1356 132.072 76.2708 132.007 76.884H131.963ZM141.489 74.267C141.489 74.4422 141.489 74.3765 141.325 74.4093C140.873 74.4968 140.416 74.5589 139.956 74.5955C139.88 74.0808 139.748 72.7887 139.573 71.5514C141.04 71.0696 141.161 71.0805 141.336 71.0148C141.434 71.4857 141.555 73.6538 141.533 74.267H141.489ZM149.472 70.6754C149.472 70.7958 149.472 70.752 149.34 70.7739C148.935 70.8519 148.526 70.9031 148.114 70.9272C147.994 70.0403 147.983 69.6461 147.796 68.2554C148.312 68.0657 148.838 67.9084 149.373 67.7846C149.461 68.2335 149.537 70.1498 149.516 70.6754H149.472ZM154.706 54.1299C147.829 57.4149 145.048 60.9299 136.343 62.5067C132.6 63.2522 128.74 63.1737 125.031 62.2767C124.21 58.707 124.374 27.2367 124.451 26.076C134.788 27.609 155.68 19.9002 155.79 19.8674C155.669 30.5436 155.188 43.8807 154.706 54.1299ZM8.14013 14.0529C12.7172 13.4178 20.0428 11.3154 28.1677 12.071C40.2127 13.166 49.1807 19.4075 61.7842 20.4258C75.7345 21.5208 81.3518 16.9218 96.0029 15.8268C106.044 15.0713 119.294 18.0825 127.429 18.1373C134.065 18.1373 149.505 14.3705 155.899 13.0455V19.5389C155.79 19.5389 133.08 27.4229 124.32 25.3643C124.32 25.3643 123.958 25.3643 123.936 25.6818C123.86 26.9411 123.531 60.6561 124.582 62.6381C124.611 62.6955 124.651 62.7465 124.7 62.7879C124.749 62.8293 124.806 62.8603 124.867 62.879C128.699 63.8261 132.693 63.9121 136.562 63.1308C145.223 61.554 148.18 58.0391 154.772 54.8088C154.607 58.0938 154.454 61.0832 154.312 63.4922C146.647 66.5582 137.668 70.2593 129.236 70.9382C122.809 71.4638 104.632 68.9015 94.5575 69.6461C83.6075 70.4673 78.3844 72.6902 72.0772 73.6319C58.3787 63.3608 59.2657 63.9849 56.8786 60.9189C57.5246 51.0639 57.9736 31.2335 58.0612 27.1053C58.0633 27.0329 58.0406 26.9618 57.9968 26.9041C57.9529 26.8463 57.8907 26.8053 57.8203 26.7878C53.0351 25.5395 45.9833 23.7984 39.3805 22.2326C39.5049 21.9937 39.5472 21.7205 39.5009 21.4551C39.4467 21.1162 39.2976 20.7995 39.0709 20.5418C38.8441 20.2841 38.5491 20.0958 38.2198 19.9988C38.3375 19.82 38.4003 19.6106 38.4003 19.3965C38.4003 19.1825 38.3375 18.9731 38.2198 18.7943C37.979 18.4196 37.6189 18.1369 37.1978 17.9919C36.7766 17.8469 36.3189 17.8479 35.8984 17.9949C34.1245 15.6407 29.9854 17.108 29.1422 19.2323C28.2991 21.3566 31.4308 19.944 21.6962 20.0535C20.2946 20.0535 14.9182 20.2506 14.0312 20.831C13.8889 20.9186 14.8853 51.2063 15.0167 54.0642C14.0304 55.1936 13.1438 56.4063 12.3668 57.6887C12.0463 54.4756 11.3631 51.3091 10.3301 48.2498C10.3301 48.1731 10.3301 48.1293 9.92498 48.1074C9.66664 46.8411 9.47656 45.5617 9.35558 44.2749C11.8522 41.6688 11.02 40.5191 9.93593 40.8585C9.46042 41.0992 8.96602 41.3007 8.45768 41.4608C8.14013 34.7046 8.06348 20.393 8.14013 14.0529ZM6.31148 44.0997C6.38813 43.9902 6.65093 35.285 7.28603 36.7961C7.76783 37.9568 7.71308 41.4717 7.82258 41.6798C8.34818 42.7748 9.74978 41.4279 10.3192 41.406C10.6039 41.7674 9.22418 43.4865 8.88473 43.8807C8.54528 44.2749 8.88473 44.8334 9.56363 48.0965H4.99748C5.44643 46.6292 6.10343 44.5158 6.31148 44.0997ZM9.73883 76.2489C7.37288 76.079 5.16589 74.9951 3.58493 73.2267C-1.15642 68.4197 1.74533 54.984 3.76013 48.5783H9.96878C11.0079 51.7367 11.6874 55.0021 11.9945 58.3128C11.9998 58.3576 12.0195 58.3994 12.0506 58.4321C12.0816 58.4647 12.1225 58.4863 12.167 58.4938C12.2114 58.5012 12.2571 58.4939 12.2971 58.4732C12.3371 58.4524 12.3692 58.4192 12.3887 58.3785C14.7321 54.2704 18.1356 50.8669 22.2437 48.5235C22.6066 55.3922 21.4242 62.2547 18.7835 68.6058C17.0644 72.6026 16.0679 76.5446 9.73883 76.2489ZM20.4698 65.1566C21.3665 65.223 22.22 65.568 22.9111 66.1432C23.6021 66.7184 24.0962 67.4952 24.3242 68.3649C25.5068 72.4712 20.656 73.8399 17.8528 72.2631C18.8565 69.9447 19.7302 67.5722 20.4698 65.1566ZM13.8998 81.3626C18.2798 82.8408 17.8966 89.9255 11.7098 88.7976C12.3121 86.6733 12.9143 84.4505 13.9436 81.3626H13.8998ZM10.6586 94.6449C10.8256 92.8978 11.1444 91.1684 11.6113 89.4765C18.4769 90.8672 19.4186 82.6109 14.0422 81.1107C14.9801 78.2378 16.1369 75.441 17.5024 72.7449C18.818 73.4679 20.3534 73.6823 21.8167 73.3472C27.3793 72.077 25.2659 64.8828 20.5574 64.839C22.2344 59.4642 22.8772 53.8202 22.4518 48.206C22.397 47.3081 23.5468 46.6839 24.9593 46.3007C24.9223 46.6135 24.9223 46.9296 24.9593 47.2424C25.1893 50.2208 30.4343 51.6224 33.1171 49.1586C35.184 49.9195 37.3986 50.1931 39.5885 49.958C40.8924 49.733 42.1173 49.179 43.1473 48.3483C43.651 47.9651 44.9321 48.4797 46.1695 49.2681C45.1014 49.6612 44.2213 50.4435 43.7057 51.4581C43.3763 52.0339 43.1693 52.6715 43.0977 53.331C43.0261 53.9904 43.0914 54.6576 43.2896 55.2906C43.8003 56.0983 44.5284 56.7455 45.3903 57.1581C46.2523 57.5706 47.213 57.7318 48.1624 57.623C47.6192 61.0379 47.5235 64.5091 47.8777 67.9488C47.0754 67.9266 46.2823 68.1251 45.5852 68.5229C44.8881 68.9207 44.3137 69.5025 43.9247 70.2045C41.1325 74.9021 45.9067 77.9681 50.0129 76.2051C51.3269 80.2128 54.4805 89.4656 54.0754 90.5825C52.725 91.753 51.1642 92.656 49.4764 93.2433C49.3546 92.4854 49.049 91.7689 48.5863 91.1565C48.1235 90.544 47.5177 90.0543 46.8219 89.7302C46.1261 89.406 45.3614 89.2573 44.5949 89.2971C43.8283 89.3369 43.0831 89.5639 42.4246 89.9583C40.3112 91.338 39.8404 94.4588 40.4974 95.6633C36.6286 96.2934 32.7213 96.6592 28.8028 96.7583C29.6131 90.1883 19.2872 89.2685 19.55 96.7583C16.5016 96.4754 13.5083 95.764 10.6586 94.6449ZM48.7865 93.5499C46.1806 94.4883 43.4938 95.1848 40.7602 95.6304V95.5647C40.6049 94.9338 40.5841 94.2772 40.6992 93.6376C40.8143 92.9981 41.0626 92.39 41.4281 91.8527C41.8736 91.1554 42.524 90.6132 43.2899 90.3003C44.0559 89.9874 44.8999 89.9193 45.7061 90.1053C46.5123 90.2912 47.2413 90.7222 47.7928 91.3389C48.3443 91.9557 48.6915 92.728 48.7865 93.5499ZM28.0801 96.7692C25.5616 96.7692 22.8131 96.7692 19.8128 96.7035C19.7747 95.571 20.1632 94.4655 20.9013 93.6057C21.6394 92.7459 22.6734 92.1945 23.7986 92.0607C24.4023 92.0454 25.0022 92.1602 25.5575 92.3974C26.1128 92.6346 26.6105 92.9886 27.0167 93.4354C27.4229 93.8821 27.7282 94.4111 27.9117 94.9864C28.0952 95.5617 28.1526 96.1698 28.0801 96.7692ZM22.1671 172.467C22.1236 172.563 22.0557 172.646 21.97 172.707C19.9104 172.732 17.8513 172.626 15.8051 172.39C15.7175 171.295 15.6409 169.784 15.5861 168.842C17.0159 169.07 18.4642 169.162 19.9114 169.116C19.5829 171.941 19.6595 171.777 20.0209 171.886C21.3677 172.39 21.1816 172.105 22.1671 172.467ZM20.1851 168.448C18.5416 168.511 16.8961 168.39 15.2795 168.087C14.6225 163.707 13.0019 146.088 13.0129 137.558C15.7175 138.434 20.8859 138.752 26.7223 138.653C24.9703 146.734 20.656 167.035 20.1851 168.448ZM50.1881 170.375C50.1416 170.469 50.0742 170.552 49.991 170.616C47.9319 170.647 45.8729 170.548 43.8262 170.32C43.7605 169.543 43.7057 168.514 43.6619 167.649C45.0483 167.872 46.4568 167.923 47.8558 167.802C47.6368 169.773 47.6806 169.696 48.0419 169.817C49.334 170.2 49.1807 170.014 50.1662 170.375H50.1881ZM48.0748 167.09C46.4424 167.302 44.7854 167.224 43.1801 166.86C42.4465 163.871 39.8951 148.147 39.0629 138.204C43.9685 137.854 48.5018 137.339 51.6335 136.813C51.4145 145.508 49.1588 164.156 48.0529 167.057L48.0748 167.09ZM57.9298 134.109C55.5098 137.591 12.1478 139.956 11.7427 135.992C10.4828 122.69 10.88 109.283 12.9253 96.0794C22.3861 98.8607 43.4758 97.7876 52.4767 92.5863C55.2251 109.34 58.8496 132.652 57.8641 134.065L57.9298 134.109Z" fill="black"/>
<path fill-rule="evenodd" clip-rule="evenodd" d="M36.3036 82.4794C36.3982 81.7709 36.3332 81.0502 36.1135 80.3701C35.8937 79.6899 35.5247 79.0675 35.0334 78.5483C34.5555 78.008 33.9537 77.5918 33.2795 77.3353C32.6053 77.0789 31.8789 76.9899 31.1627 77.076C30.4466 77.1622 29.762 77.4209 29.1679 77.8299C28.5737 78.239 28.0877 78.7861 27.7517 79.4243C27.3819 80.0261 27.1465 80.7006 27.0615 81.4017C26.9764 82.1029 27.0438 82.8141 27.2589 83.4868C29.0109 86.8265 35.7123 86.5418 36.3036 82.4794ZM28.2225 79.6871C28.5166 79.1239 28.9436 78.6408 29.4665 78.2797C29.9893 77.9187 30.5924 77.6905 31.2233 77.615C31.8542 77.5395 32.494 77.6189 33.0874 77.8465C33.6807 78.074 34.2096 78.4427 34.6283 78.9206C35.0587 79.3828 35.3804 79.9353 35.5699 80.5378C35.7594 81.1402 35.8117 81.7774 35.7233 82.4027C35.2196 85.8958 29.2409 86.1476 27.7188 83.224C27.5543 82.6316 27.5141 82.0116 27.6008 81.4029C27.6874 80.7942 27.8991 80.21 28.2225 79.6871ZM39.9828 62.4847C40.0842 61.7693 40.0226 61.0402 39.8027 60.3519C39.5827 59.6636 39.2101 59.0339 38.7126 58.5098C38.2355 57.9691 37.6344 57.5521 36.9607 57.2949C36.287 57.0376 35.561 56.9476 34.8449 57.0327C34.1288 57.1177 33.444 57.3753 32.8494 57.7833C32.2547 58.1912 31.768 58.7374 31.4309 59.3749C27.5546 66.3719 39.1944 67.9816 39.9828 62.4847ZM31.9017 59.6924C32.1958 59.1292 32.6228 58.6461 33.1457 58.285C33.6685 57.924 34.2716 57.6958 34.9025 57.6203C35.5334 57.5448 36.1732 57.6242 36.7666 57.8518C37.3599 58.0793 37.8888 58.448 38.3075 58.9259C38.7399 59.3868 39.0629 59.9391 39.2525 60.542C39.4421 61.1448 39.4933 61.7827 39.4025 62.408C38.8988 65.9011 32.9201 66.142 31.398 63.2293C31.2335 62.6369 31.1933 62.0169 31.28 61.4082C31.3666 60.7995 31.5783 60.2154 31.9017 59.6924ZM179.792 110.457C177.656 108.955 175.383 107.657 173.003 106.58C173.168 105.266 173.781 97.6451 173.332 96.9553C173.19 96.7472 173.157 96.9553 173.332 96.5392C173.682 96.7872 174.085 96.9492 174.51 97.012C174.934 97.0748 175.367 97.0366 175.774 96.9005C176.154 97.4094 176.717 97.7508 177.344 97.8529C177.971 97.955 178.613 97.8099 179.135 97.448C180.789 96.572 183.658 93.1556 182.793 90.7357C182.464 89.8268 182.223 90.4072 183.132 89.783C183.861 89.1504 184.425 88.3499 184.775 87.4507C185.22 86.6052 185.403 85.6458 185.3 84.6957C185.196 83.7455 184.811 82.8479 184.194 82.118C183.287 81.0101 182.034 80.2389 180.636 79.928C180.2 79.8086 179.757 79.7135 179.311 79.6433C179.07 78.1979 180.154 75.5809 176.179 73.4237C174.926 72.828 173.494 72.7302 172.171 73.15C170.66 73.577 171.076 74.245 170.802 73.4456C169.609 70.3249 165.645 68.102 162.962 69.7336C162.193 70.1882 161.539 70.8139 161.051 71.5621C160.563 72.3103 160.254 73.1609 160.148 74.0479C160.184 74.9597 160.408 75.8543 160.805 76.6759C156.206 77.2562 156.896 84.0124 160.893 83.8481C160.065 85.7377 159.398 87.6938 158.9 89.6954C158.429 92.1482 158.079 94.9076 159.217 97.1414C159.712 98.034 160.403 98.8029 161.237 99.3908C162.072 99.9786 163.028 100.37 164.035 100.536C163.488 101.576 162.94 102.616 162.579 103.416C153.677 101.631 134.284 106.81 132.456 108.398C132.127 108.683 132.269 108.935 132.456 109.493C131.179 109.854 129.885 110.15 128.579 110.38C124.391 105.364 119.763 100.732 114.749 96.5392C114.881 94.0754 113.074 91.2394 111.059 90.7028C108.869 87.2098 106.373 83.7277 105.749 83.3554C105.124 82.9831 99.9888 86.3119 99.6603 86.9798C99.5508 87.1879 99.6603 87.3631 99.8355 87.7244C100.865 89.7064 105.584 97.448 107.698 100.459C109.432 104.694 111.554 108.759 114.038 112.603C113.325 112.688 112.618 112.824 111.924 113.008C103.734 115.121 96.5286 120.366 90.747 126.082C84.0785 132.652 77.9684 141.533 75.855 145.869C75.7455 146.077 75.6579 146.241 75.7565 146.427C76.007 146.903 76.2849 147.364 76.5887 147.807L75.9426 148.749C74.0483 147.292 68.0148 142.945 66.0876 144.445C64.3575 145.157 63.2625 145.321 65.6277 149.504C67.1388 152.154 71.2779 156.677 73.9169 157.98C75.6251 158.812 76.5777 157.191 76.2602 156.545C77.8763 155.668 79.3801 154.598 80.7387 153.359L81.8337 154.727C81.899 154.8 81.9889 154.846 82.086 154.856C82.1831 154.866 82.2805 154.84 82.3593 154.782C95.2694 144.927 110.917 132.499 112.297 133.123C114.848 134.284 124.145 149.132 127.145 151.366C127.178 151.389 127.201 151.425 127.208 151.465C127.215 151.505 127.206 151.546 127.183 151.579C127.16 151.613 127.124 151.636 127.084 151.643C127.044 151.65 127.003 151.641 126.97 151.618C123.509 149.242 114.103 134.908 112.034 133.835C110.216 134.371 104.511 138.861 94.2182 146.187C89.0279 161.517 87.1883 180.734 87.6482 181.96C87.7467 182.19 88.2285 182.464 88.9293 182.749C88.7979 183.942 88.6665 185.169 88.568 186.231C86.5422 187.523 80.3007 191.804 81.0891 194.093C81.1658 195.91 80.9139 197.049 85.6991 196.283C88.6884 195.768 91.8858 194.093 94.4591 192.658C94.8861 192.428 95.0394 190.786 95.0613 189.91C95.6642 188.235 96.0327 186.485 96.1563 184.709C96.8705 184.9 97.6178 184.934 98.3463 184.807C98.85 184.555 100.679 181.391 102.989 177.066C100.799 185.617 98.2149 197.137 99.08 198.199C99.3444 198.563 99.7253 198.825 100.16 198.943C100.594 199.061 101.055 199.026 101.467 198.845C102.726 198.309 108.782 177.098 110.348 170.747C114.925 171.842 122.896 173.748 131.755 175.773C127.747 189.855 124.364 204.024 125.086 204.955C125.34 205.319 125.714 205.582 126.141 205.7C126.569 205.818 127.025 205.783 127.43 205.601C128.043 205.338 132.905 190.961 137.712 177.131C150.852 180.088 164.605 183.011 171.503 183.964C172.598 192.932 174.602 207.156 175.883 207.923C176.259 208.172 176.709 208.284 177.158 208.24C177.607 208.196 178.027 207.999 178.347 207.682C179.103 206.926 177.909 192.352 176.956 183.263C180.767 179.496 188.322 167.101 194.794 155.636C196.228 169.411 200.105 202.721 201.561 205.295C201.743 205.507 201.973 205.671 202.233 205.774C202.492 205.877 202.773 205.916 203.05 205.886C203.508 205.858 203.938 205.659 204.255 205.327C205.251 204.342 200.97 159.775 199.678 150.49C202.098 150.402 204.058 150.304 205.35 150.172C207.003 150.008 207.343 145.65 205.832 145.19C204.242 144.774 202.619 144.499 200.981 144.369C203.696 139.255 205.623 135.357 206.051 134.109C206.138 133.846 206.215 133.561 206.051 133.375C205.492 133.005 204.893 132.7 204.266 132.466C206.773 127.133 208.405 123.487 208.47 123.257C209.62 118.91 184.118 111.705 179.792 110.457ZM72.3401 147.052C71.6804 148.534 70.8617 149.94 69.8982 151.245L68.8032 149.931C69.8126 148.885 70.4677 147.549 70.6757 146.11C71.2341 146.416 71.7926 146.734 72.3401 147.052ZM70.0844 145.836C69.8634 147.143 69.2659 148.357 68.3652 149.329C65.343 145.311 65.7044 143.701 70.0844 145.836ZM74.1797 157.618C71.8692 156.37 66.6132 150.785 65.2883 147.019C65.2007 146.778 64.9598 146 65.135 145.825C65.2923 145.701 65.4653 145.598 65.6496 145.519C65.5839 146.92 67.1717 149.055 68.0367 150.139C69.6464 152.143 72.8766 156.041 75.4608 156.709C75.6414 156.747 75.8277 156.747 76.0083 156.709C76.2383 157.06 75.4827 158.33 74.1797 157.618ZM75.636 156.074C74.2235 155.691 72.1758 153.808 70.38 151.804C71.387 150.408 72.1531 148.854 72.6467 147.205C74.0921 148.07 75.3513 148.935 75.855 149.318C75.8827 149.339 75.9142 149.353 75.9478 149.361C75.9813 149.369 76.016 149.37 76.0499 149.364C76.0838 149.357 76.116 149.344 76.1446 149.325C76.1733 149.306 76.1977 149.281 76.2164 149.252C76.2164 149.252 76.4901 148.793 76.8515 148.223C77.9465 149.734 79.359 151.618 80.5307 153.063C78.6911 154.432 76.2821 156.261 75.636 156.074ZM85.71 189.187C86.8732 190.306 87.9122 191.547 88.8089 192.888L87.1992 193.436C86.5616 192.155 85.5393 191.106 84.2756 190.435C84.7902 189.965 85.283 189.538 85.71 189.187ZM83.8047 190.873C84.9387 191.541 85.864 192.512 86.4765 193.677C81.8666 195.133 80.1912 194.377 83.8047 190.873ZM94.3605 192.253C90.8675 193.896 86.8926 195.823 83.2572 195.79C83.0163 195.79 82.1622 195.79 82.0856 195.527C82.023 195.34 81.9862 195.144 81.9761 194.947C83.5638 195.593 86.9802 194.323 88.6227 193.742C90.5171 193.096 93.4298 191.968 94.8204 190.457C94.758 191.076 94.603 191.681 94.3605 192.253ZM94.6124 189.647C93.7145 190.895 91.3274 191.968 89.5097 192.636C88.5343 191.236 87.3487 189.995 85.9947 188.957C89.0169 186.548 89.1593 186.767 89.1812 186.461C89.1812 186.461 89.2797 184.73 89.4111 182.946C91.5115 183.645 93.6549 184.208 95.8278 184.632C95.6623 186.349 95.2644 188.037 94.6452 189.647H94.6124ZM197.542 116.632C195.659 116.37 194.038 116.632 193.217 117.519C192.834 117.957 191.684 119.709 190.042 122.348C187.794 118.045 184.664 114.266 180.855 111.256C187.206 113.052 193.195 114.979 197.575 116.632H197.542ZM162.59 103.985C162.82 103.985 162.59 103.985 164.419 100.514C164.616 100.109 163.324 100.383 161.55 99.1672C158.429 97.0867 158.681 93.4841 159.447 89.8159C160.004 87.7283 160.737 85.6916 161.637 83.7277C162.595 83.3331 163.46 82.744 164.178 81.9976C169.598 84.7789 171.678 84.1876 172.642 84.5818C172.425 85.112 172.142 85.6125 171.799 86.071C171.799 86.071 172.368 89.7173 171.547 91.4036C171.208 92.0935 172.467 92.4439 173.047 92.0826C173.332 91.863 173.593 91.6134 173.825 91.3379C175.861 91.0094 176.015 92.0278 175.018 93.3089C173.781 94.8529 172.927 94.9186 172.828 95.6741C172.773 96.2435 171.635 97.3166 172.62 97.459C172.681 100.568 172.527 103.678 172.16 106.766C172.149 106.847 172.164 106.929 172.203 107.001C172.243 107.072 172.305 107.128 172.379 107.161C173.036 107.434 173.737 107.752 174.416 108.091C171.405 112.176 167.507 116.052 162.371 114.837C157.235 113.621 157.914 108.376 160.334 103.69C161.092 103.74 161.845 103.839 162.59 103.985ZM159.852 103.799C158.889 105.682 157.586 108.967 158.155 111.606C158.812 114.618 161.747 115.789 164.725 115.669C168.558 115.516 170.923 113.402 173.277 110.774C173.978 109.975 174.679 109.143 175.226 108.387C187.348 114.607 193.491 129.356 193.305 132.138C191.115 133.408 178.205 133.572 175.631 133.605C174.911 130.944 174.355 128.242 173.967 125.513C173.967 125.472 173.951 125.433 173.922 125.404C173.893 125.376 173.854 125.36 173.814 125.36C173.773 125.36 173.734 125.376 173.705 125.404C173.677 125.433 173.66 125.472 173.66 125.513C173.953 128.366 174.433 131.197 175.095 133.988C175.182 134.339 175.61 134.24 177.022 134.24L177.219 134.711C169.39 135.62 164.879 135.806 158.418 139.003C154.684 135.302 151.136 131.623 145.606 126.958C143.494 125.019 141.232 123.251 138.839 121.669C140.868 118.474 143.176 115.466 145.738 112.679C145.891 112.548 145.683 112.318 145.53 112.45C142.58 114.911 140.134 117.919 138.325 121.308C137.295 119.009 133.835 111.146 133.124 108.902C134.996 107.719 150.49 103.23 159.852 103.799ZM168.7 161.046C170.266 157.969 172.127 154.476 174.175 150.873C180 150.873 185.99 150.764 191.235 150.676C188.476 155.538 185.563 160.695 182.957 165.25C178.194 163.739 173.365 162.327 168.7 161.046ZM182.541 165.907C178.588 172.806 175.412 178.215 174.734 178.938C172.916 178.938 155.976 175.084 139.748 171.382C141.938 165.141 143.953 159.458 145.377 155.812C157.279 158.637 171.58 162.393 182.541 165.907ZM168.963 150.928L173.595 150.873C172.971 152.034 172.357 153.184 171.766 154.333C170.945 153.315 170.003 152.165 168.963 150.928ZM147.512 150.928C146.504 151.103 146.417 150.074 139.015 171.262L133.967 170.101C140.197 148.705 142.431 146.909 142.727 146.909C143.668 145.584 176.146 143.756 194.684 144.599L191.629 149.986C175.347 150.205 151.585 150.129 147.512 150.884V150.928ZM190.589 143.854C175.259 143.559 153.764 144.664 145.694 145.891C142.497 145.628 145.771 143.471 148.804 143C151.103 142.65 153.589 142.748 154.093 142.496C156.721 141.182 157.783 137.755 177.679 135.302C178.15 135.237 177.843 134.711 177.679 134.284C182.228 134.335 186.775 134.079 191.29 133.517C191.728 136.126 191.944 138.767 191.936 141.412C191.763 142.338 191.29 143.181 190.589 143.81V143.854ZM111.202 91.2941C111.668 91.4293 112.102 91.657 112.478 91.9637C112.855 92.2703 113.165 92.6496 113.392 93.079C113.787 93.9192 114.024 94.8248 114.092 95.7508C113.403 94.5791 112.899 93.6265 112.757 93.4951C112.373 93.1118 109.57 93.3637 108.836 92.4001C108.103 91.4365 110.074 90.9656 111.202 91.2503V91.2941ZM100.186 87.2207C101.401 85.8082 105.661 83.3554 105.661 83.6291C106.197 83.9905 108.322 87.2536 110.337 90.5933C108.76 90.5933 107.435 91.546 108.3 92.7833C109.165 94.0207 111.202 93.8783 112.286 94.0645C113.072 95.2987 113.764 96.5909 114.355 97.9298C113.26 98.554 109.822 100.613 109.023 101.007C107.698 99.4519 100.536 88.0091 100.186 87.2207ZM114.76 112.57C112.434 109.145 110.415 105.521 108.727 101.74C108.946 101.828 109.154 101.74 109.439 101.565C110.534 100.996 113.928 98.992 114.914 98.4116C115.341 98.1488 115.001 97.4918 114.771 96.9772C121.144 102.124 128.185 110.949 128.393 111.015C129.879 110.882 131.346 110.595 132.773 110.161C133.781 112.844 136.058 118.067 137.153 120.52C129.466 115.362 121.681 111.99 114.76 112.57ZM116.764 149.997C126.619 152.132 133.671 153.633 138.664 154.279C137.12 158.429 135.314 164.002 133.54 169.948C121.955 167.298 111.87 164.988 109.548 164.55C113.184 157.29 116.425 150.709 116.764 149.997ZM101.15 198.177C100.896 198.271 100.62 198.279 100.361 198.202C100.103 198.125 99.8759 197.967 99.7151 197.75C99.299 196.283 102.069 183.581 104.007 175.237C104.905 173.54 105.847 171.711 106.8 169.86L109.931 170.638C108.289 176.77 102.146 196.732 101.15 198.177ZM127.123 205.01C126.869 205.104 126.591 205.112 126.332 205.033C126.073 204.954 125.847 204.792 125.688 204.572C125.524 202.382 128.623 189.154 132.258 175.894L136.978 176.989C132.532 190.008 128.01 203.422 127.123 205.01ZM177.821 207.2C177.623 207.382 177.368 207.491 177.1 207.509C176.831 207.527 176.564 207.453 176.343 207.298C175.391 206.061 173.288 192.68 172.051 184.041C175.741 184.522 175.85 184.292 176.431 183.778C177.208 192.538 178.128 205.831 177.865 207.178L177.821 207.2ZM203.707 204.868C203.512 205.035 203.267 205.134 203.01 205.15C202.753 205.166 202.498 205.097 202.284 204.955C201.014 202.699 196.809 168.327 195.199 155.034C196.053 153.512 196.885 152.012 197.685 150.556H199.371C200.346 158.932 204.036 201.834 203.707 204.846V204.868ZM205.678 145.869C206.478 146.11 206.171 149.395 205.339 149.482C203.762 149.636 201.233 149.745 198.09 149.833C199.01 148.147 199.886 146.548 200.696 145.004C202.379 145.132 204.047 145.415 205.678 145.847V145.869ZM205.404 133.824C204.309 137.591 181.183 180.033 175.555 183.559C173.244 185.015 111.826 170.715 106.942 169.598C107.763 168.01 108.596 166.389 109.395 164.791C130.2 169.598 173.781 180.208 175.029 179.595C176.464 178.883 200.51 135.324 202.47 132.598C203.477 132.924 204.458 133.327 205.404 133.802V133.824ZM207.759 123.06C206.396 126.117 205.005 129.161 203.587 132.192C203.16 132.028 202.776 131.897 202.568 131.842C202.476 131.799 202.372 131.786 202.271 131.805C202.171 131.825 202.079 131.876 202.01 131.951C201.594 132.411 198.725 137.427 195.002 143.997C193.819 143.942 192.571 143.898 191.279 143.876C191.857 143.197 192.237 142.371 192.374 141.489C192.571 140.306 192.045 136.321 191.618 133.452C193.02 133.178 193.951 132.827 194.027 132.357C194.323 130.813 191.367 124.79 190.48 123.126C192.221 120.334 193.447 118.472 193.765 118.045C196.25 115.187 208.164 120.848 207.759 123.038V123.06Z" fill="black"/>
</svg>
