<svg width="41" height="28" viewBox="0 0 41 28" fill="none" xmlns="http://www.w3.org/2000/svg">
<path d="M0 18.8792C0 18.2617 0 17.6443 0 17.0268C0.105298 16.9446 0.0892525 16.8242 0.102289 16.7137C0.574626 12.5187 4.14573 8.84032 8.42283 8.17296C8.77483 8.11816 8.91823 7.97725 9.04158 7.66901C11.7222 0.957189 19.8451 -1.99997 26.3114 1.45037C30.383 3.62274 32.514 7.06623 32.7948 11.5842C32.8138 11.8895 32.886 11.9981 33.209 12.0157C33.6883 12.0431 34.1737 12.0989 34.641 12.2065C38.8991 13.1929 41.5586 17.0708 40.8987 21.3109C40.3451 24.8688 37.1491 27.8015 33.4436 27.9307C29.9307 28.053 26.4097 27.9738 22.8928 27.9943C22.4926 27.9963 22.5348 27.7604 22.5348 27.5129C22.5358 24.7661 22.5348 22.0203 22.5388 19.2735C22.5388 19.1581 22.4706 19.0132 22.7413 18.8567C22.8507 19.0025 22.958 19.1943 23.1104 19.3411C23.9849 20.1787 25.2404 20.1943 26.0557 19.39C26.854 18.6023 26.8399 17.383 25.9986 16.5522C24.6748 15.2459 23.344 13.9464 22.0022 12.6566C21.1007 11.7896 19.9143 11.7887 19.0208 12.6498C17.681 13.9405 16.3493 15.239 15.0245 16.5454C14.1781 17.3801 14.1571 18.5886 14.9533 19.3831C15.7636 20.1924 17.0222 20.1846 17.8976 19.3479C18.0571 19.1962 18.1614 18.9888 18.2907 18.8068C18.3479 18.8508 18.4041 18.8948 18.4612 18.9379C18.4672 18.9976 18.4793 19.0573 18.4793 19.116C18.4803 21.944 18.4733 24.771 18.4883 27.599C18.4903 28.0021 18.2697 27.9914 17.9839 27.9904C15.4166 27.9865 12.8494 28.006 10.2821 27.9835C5.5477 27.9424 1.60153 24.9912 0.368041 20.5838C0.211599 20.0241 0.121343 19.4467 0.00100284 18.8782L0 18.8792Z" fill="white"/>
</svg>
