<svg width="195" height="192" viewBox="0 0 195 192" fill="none" xmlns="http://www.w3.org/2000/svg">
<path d="M1.15308 101.922C0.519627 101.937 0.334103 101.2 0.702078 101.074C1.1623 100.916 36.1865 95.2688 48.0191 93.3941C109.52 83.6494 193.717 74.2706 194.328 74.4387C194.628 74.5217 194.481 74.9174 194.058 74.985C188.64 75.8573 167.24 78.5715 166.889 78.6105C102.841 85.7527 1.17665 101.917 1.15308 101.922Z" fill="black"/>
<path d="M19.9341 135.82C20.0243 134.874 20.1165 134.58 20.0786 132.554C19.9413 125.123 24.8787 124.74 35.7488 120.992C62.611 111.728 52.4194 115.822 79.8997 107.679C79.9212 107.673 98.8406 102.496 98.8642 102.49C136.851 92.3249 135.569 91.1574 147.386 100.76C150.516 103.303 168.305 120.609 172.98 126.162C177.378 131.388 179.673 133.965 179.477 136.962C179.315 139.44 179.131 142.684 178.027 145.13C177.181 147.002 176.518 147.757 160.673 155.093C157.365 156.624 147.347 161.265 142.943 162.856C122.766 170.147 78.2146 185.683 57.2759 190.36C49.8231 192.024 47.6306 190.949 42.0792 183.231C33.6937 171.572 24.2483 151.365 20.7992 140.99C20.4251 139.863 19.9423 137.322 19.9341 135.82ZM133.857 95.0319C133.857 95.1108 132.934 94.9632 132.218 95.0688C126.008 95.9862 67.4469 111.814 44.5638 119.126C23.9716 125.707 19.4472 126.818 21.8027 133.177C24.4031 140.2 32.2105 158.192 36.4212 165.492C46.5267 183.012 50.0937 184.849 59.3515 182.946C83.1704 178.049 168.374 149.325 176.639 139.836C180.536 135.361 178.107 133.171 166.838 121.316C157.869 111.881 148.561 102.945 146.198 101.023C142.291 97.8465 138.499 95.0319 133.857 95.0319ZM144.9 158.135C144.885 159.434 145.705 159.156 146.832 158.751C152.989 156.537 153.944 155.89 153.956 155.151C153.988 153.35 153.445 153.685 148.135 155.881C145.267 157.066 144.912 157.046 144.899 158.135H144.9ZM156.824 153.236C156.824 154.2 157.288 154.415 157.924 154.159C159.22 153.635 159.996 153.351 164.469 151.21C165.6 150.669 165.809 150.106 165.663 149.398C165.531 148.756 165.334 148.646 164.706 148.859C164.092 149.067 163.477 149.285 162.888 149.554C156.986 152.235 156.758 152.158 156.824 153.236Z" fill="black"/>
<path d="M161.909 123.238C163.665 123.399 164.463 123.986 168.337 128.403C169.447 129.669 171.242 131.387 172.107 133.862C172.639 135.384 171.664 137.031 170.516 137.801C155.917 147.587 97.4754 167.264 83.5323 171.286C55.8686 179.264 52.1089 184.508 39.567 162.199C33.8936 152.107 27.0712 136.318 26.7955 135.63C25.3297 131.973 26.0954 129.524 30.0878 127.851C30.918 127.504 35.3194 125.066 49.7995 120.977C92.294 108.976 128.178 96.4955 136.422 98.7782C137.942 99.1995 141.92 101.377 144.892 104.384C145.091 104.586 145.094 104.843 145.194 105.068C145.218 105.12 145.133 105.225 145.089 105.302C143.518 108.034 143.132 107.698 146.508 111.162C146.53 111.185 153.73 118.648 157.79 122.76C158.547 123.526 158.986 122.969 161.909 123.238ZM158.869 124.367C156.361 124.347 155.687 122.188 147.028 113.453C141.845 108.225 142.233 107.806 143.921 105.056C143.981 104.96 144.042 104.892 143.915 104.785C135.818 97.952 134.208 98.7587 124.718 101.021C119.434 102.281 114.369 103.174 90.9523 110.156C27.4351 129.093 24.5302 127.818 28.0111 136.181C28.0203 136.203 36.0594 153.793 40.2506 161.204C44.1036 168.017 50.6667 176.944 56.9182 176.854C68.187 176.693 156.833 146.827 170.45 136.508C171.653 135.597 171.431 134.164 170.571 132.924C169.747 131.737 167.06 128.59 166.784 128.284C162.749 123.812 163.465 124.403 158.869 124.367Z" fill="black"/>
<path d="M156.075 115.994C155.753 116.343 155.452 116.666 154.716 116.294C154.162 116.014 148.487 110.502 147.973 109.74C147.564 109.133 148.337 108.456 148.726 108.732C150.183 109.763 155.416 114.663 156.075 115.994Z" fill="black"/>
<path d="M159.669 119.267C159.48 120.266 157.149 119.97 156.811 118.89C156.286 117.216 159.99 117.58 159.669 119.267Z" fill="black"/>
<path d="M167.049 136.661C166.103 136.711 165.812 136.076 164.414 133.986C164.209 133.678 164.048 133.349 164.252 132.976C164.32 132.853 164.392 132.705 164.504 132.637C165.127 132.257 166.221 131.656 166.798 132.107C167.448 132.615 169.342 134.854 168.875 135.529C168.43 136.17 167.827 136.565 167.05 136.661H167.049ZM168.114 135.134C168.049 134.904 168.18 135.092 167.465 134.089C167.297 133.853 167.175 134.056 166.032 134.751C165.892 134.836 165.916 134.808 166.53 135.769C166.732 136.087 166.862 136.066 167.925 135.403C168.017 135.346 168.062 135.211 168.114 135.134Z" fill="black"/>
<path d="M164.684 129.047C165.402 129.021 165.996 129.935 165.726 130.189C165.505 130.397 163.647 131.221 163.395 131.328C163.025 131.485 162.784 131.639 162.339 130.914C162.123 130.561 162.136 130.28 162.719 129.989C164.669 129.019 164.385 129.157 164.684 129.047Z" fill="black"/>
<path d="M140.052 104.147C140.291 104.721 139.298 105.211 138.638 105.334C136.682 105.699 136.812 103.705 138.781 103.678C139.412 103.668 139.83 103.617 140.052 104.147Z" fill="black"/>
<path d="M140.81 105.114C141.187 105.114 141.426 105.061 141.557 105.466C141.709 105.933 141.709 105.901 141.415 106.22C141.043 106.624 140.554 106.797 140.022 106.848C138.767 106.97 138.764 104.934 140.81 105.114Z" fill="black"/>
<path d="M160.983 129.153C160.558 128.621 160.766 128.576 162.561 127.777C162.738 127.699 163.115 128.012 163.227 128.143C163.729 128.736 163.185 128.924 162 129.532C161.621 129.727 161.262 129.502 160.983 129.153Z" fill="black"/>
<path d="M161.779 127.078C161.513 127.427 161.781 127.382 160.401 128.024C160.237 128.101 160.012 127.878 159.906 127.764C159.508 127.336 159.514 127.222 160.002 126.901C160.272 126.724 160.559 126.562 160.857 126.443C161.199 126.308 161.747 126.66 161.78 127.078H161.779Z" fill="black"/>
<path d="M135.34 100.734C136.172 101.418 134.729 101.676 133.695 102.002C133.099 102.19 132.508 101.549 135.34 100.734Z" fill="black"/>
<path d="M134.724 102.811C134.651 102.745 134.336 102.605 134.608 102.325C134.799 102.128 135 102.026 136.245 101.676C136.744 101.535 136.825 102.137 136.482 102.259C134.745 102.871 134.92 102.802 134.725 102.812L134.724 102.811Z" fill="black"/>
<path d="M137.956 103.269C137.717 103.328 137.57 103.107 137.382 102.982C137.342 102.955 137.34 102.802 137.376 102.743C137.59 102.386 138.507 102.149 138.431 102.909C138.406 103.167 138.287 103.264 137.956 103.269Z" fill="black"/>
<path d="M136.405 103.918C135.748 103.906 135.779 103.079 136.328 103.054C136.569 103.044 136.906 103.324 136.9 103.53C136.893 103.742 136.665 103.923 136.405 103.918Z" fill="black"/>
<path d="M97.7409 53.0507C97.7409 54.6999 97.6199 54.5656 98.3784 54.7788C99.7888 55.1765 119.308 133.714 121.07 141.807C121.145 142.148 121.241 142.097 122.168 142.238C122.542 142.296 122.882 142.47 123.243 142.556C123.929 142.719 124.399 143.141 124.734 143.719C125.367 144.811 125.085 145.198 124.94 146.451C124.536 149.958 119.325 150.197 117.196 149.065C115.306 148.059 115.63 146.41 115.405 145.864C115.576 144.017 115.954 143.612 116.592 142.917C116.994 142.478 116.927 142.855 103.029 134.866C97.2099 131.521 96.1839 130.957 95.1445 130.325C94.7325 130.075 94.7653 130.182 92.5656 131.549C75.5189 142.142 78.8071 140.064 74.5892 142.77C74.1003 143.084 75.5629 143.464 75.8909 145.136C76.0098 145.743 75.9145 146.294 75.6132 147.374C74.7224 150.563 69.5421 150.816 66.8679 149.313C63.8595 147.622 65.1725 142.101 68.9332 142.172C69.7327 142.187 69.6159 142.316 80.4061 92.7581C80.4132 92.7253 89.2036 55.7023 89.8873 55.0392C91.0507 53.9086 89.5255 51.0919 91.636 49.9593C91.9906 49.7686 92.3586 49.6333 92.7727 49.622C94.0744 49.5851 97.5451 49.0081 97.7409 51.8453C97.7501 51.9785 97.7624 53.0507 97.7409 53.0507ZM94.7663 109.735C93.3385 110.419 87.5411 113.623 81.0067 117.038C77.8169 118.704 77.7728 118.128 79.4139 118.961C83.9843 121.281 85.0534 121.774 93.2565 126.561C94.8668 127.501 94.8729 127.607 95.1599 127.43C99.9456 124.487 110.938 118.322 111.464 117.977C111.791 117.763 111.838 118.07 101.982 113.248C94.7745 109.721 95.4428 110.012 94.7663 109.736V109.735ZM112.96 118.98C111.295 120.222 96.5949 128.571 97.213 128.943C113.014 138.46 118.463 141.409 118.529 141.379C118.901 141.213 113.301 119.203 112.96 118.98ZM71.8996 141.41C72.0267 141.846 70.2258 142.46 92.3432 129.122C92.8229 128.833 92.9982 129.106 82.8486 123.349C76.3665 119.673 76.754 119.472 76.6187 120.065C73.5867 133.371 76.6433 120.081 71.8996 141.409V141.41ZM106.784 101.127C105.91 100.521 99.5602 97.3563 95.6386 95.048C94.6853 94.4873 94.9057 94.474 88.4841 98.2113C88.4615 98.2247 82.9552 101.342 82.78 101.5C83.2402 101.892 84.0499 102.065 89.2487 104.433C96.066 107.538 94.055 107.521 96.393 106.363C100.597 104.279 106.382 101.469 106.784 101.127ZM112.355 116.256C112.349 116.232 108.73 102.266 108.723 102.245C108.615 101.88 109.129 102.138 99.4731 107.149C97.2735 108.291 97.1597 108.333 97.4405 108.505C97.4621 108.519 112.252 116.256 112.355 116.256ZM92.1597 108.484C91.6226 108.043 86.47 105.795 80.814 102.832C80.5178 102.677 80.8489 101.704 77.9461 114.193C77.8979 114.399 77.4797 116.246 77.4705 116.557C77.6693 116.524 92.1474 108.506 92.1597 108.484ZM103.867 87.8146C103.802 87.7377 95.737 83.5844 94.2548 82.8259C94.0314 82.7121 93.8366 82.624 93.5886 82.7869C93.3405 82.9499 86.103 87.3543 86.0784 87.3789C86.6176 87.6875 89.7981 89.1901 94.9221 92.096C95.3629 92.3461 95.0574 92.3563 101.693 88.9697C102.329 88.6458 103.695 87.9099 103.866 87.8156L103.867 87.8146ZM81.2814 100.164C85.6756 97.2282 87.3084 96.4143 92.417 93.7032C92.9715 93.409 92.9039 93.5904 89.4732 91.7137C83.4032 88.3937 83.8788 88.4296 83.7465 89.023C81.2701 100.159 81.1594 99.6638 81.2824 100.163L81.2814 100.164ZM94.261 80.123C94.5982 79.9672 101.282 76.3376 101.552 76.1029C101.294 75.9184 97.5605 73.974 97.5389 73.9607C95.0615 72.6681 95.0287 72.581 94.711 72.7891C94.3655 73.0156 87.6743 76.5303 87.5893 76.6011C87.7143 76.6882 94.1308 80.0666 94.262 80.124L94.261 80.123ZM107.961 99.3798C107.915 99.0201 105.512 89.7559 105.416 89.4074C105.245 88.7893 105.964 88.6633 97.8403 93.1907C97.0193 93.6489 96.5098 92.9949 103.584 97.0221C107.907 99.4834 107.664 99.4977 107.961 99.3798ZM104.507 85.948C102.218 76.8922 102.505 77.5902 102.093 77.8054C101.837 77.9387 101.964 77.8803 99.1246 79.5254C96.2854 81.1705 96.0486 81.1746 96.3909 81.3745C104.439 86.068 104.304 86.0557 104.508 85.9491L104.507 85.948ZM84.4866 85.7994C84.6075 86.1233 83.9854 86.3509 90.0708 82.6137C91.6503 81.6441 91.9435 81.6307 91.5581 81.4175C90.8129 81.0065 91.5406 81.4411 86.4669 78.5803C86.1297 78.3897 86.2855 77.6332 84.4866 85.7994ZM99.0477 68.7403C98.7433 68.4667 98.3313 68.2647 96.4996 67.0665C94.6484 65.855 94.6156 65.5731 94.096 65.8621C90.2317 68.0105 90.2881 67.6262 90.5689 67.9347C90.5884 67.9562 92.5697 69.0273 94.9047 70.3332C95.2686 70.5372 95.2071 70.5659 99.0477 68.7403ZM87.0163 74.6249C87.17 75.0625 86.6821 74.6853 92.4734 71.8297C93.2114 71.4658 93.2124 71.7825 88.6399 69.012C88.2453 68.7731 88.3467 68.3959 87.0163 74.6249ZM73.638 144.201C73.0486 143.691 72.8293 144.008 71.3881 144.954C70.6983 145.407 69.294 145.454 69.1751 144.496C69.0573 143.539 69.1229 143.392 68.9097 143.421C67.2861 143.639 66.6055 144.956 67.0893 145.53C69.1311 147.952 75.8684 146.131 73.638 144.201ZM97.5564 62.1342C93.9637 59.5553 93.9125 59.1802 93.5035 59.4436C91.2383 60.9011 91.0917 60.9155 91.311 61.0692C94.8073 63.5221 94.6105 63.519 94.9559 63.3499C95.9615 62.8599 97.2294 62.3402 97.5564 62.1342ZM120.027 146.308C121.339 146.272 121.888 145.871 122.129 145.817C123.012 145.624 123.747 144.602 122.961 143.87C122.574 143.509 122.067 143.53 121.611 143.394C121.493 143.36 121.399 143.438 121.418 143.581C121.486 144.068 120.646 144.856 119.791 144.392C118.111 143.478 118.069 143.423 117.803 143.61C117.312 143.955 116.802 144.748 117.218 145.272C117.985 146.238 118.801 146.16 120.027 146.308ZM100.321 69.6782C100.097 69.7992 100.276 69.6936 97.5164 71.2905C97.2704 71.433 96.9885 71.5581 97.2355 71.7006C101.451 74.1134 101.032 74.0078 101.462 74.1011C101.458 73.8971 100.517 70.0001 100.321 69.6782ZM89.5839 65.9872C92.3924 64.4384 92.2786 64.5409 92.4037 64.4579C92.6733 64.2785 92.4908 64.256 90.0882 62.4007C89.7643 62.1506 89.8217 62.3618 89.3328 64.5081C88.7506 67.0645 88.7885 66.4249 89.5839 65.9872ZM93.9525 50.6081C93.9525 50.6696 91.5847 50.3908 91.5232 51.3881C91.4617 52.3854 95.6591 52.3475 96.433 51.631C97.2724 50.8541 95.203 50.6081 93.9525 50.6081ZM98.6798 63.1018C98.4235 63.2156 98.0555 63.4329 97.8956 63.5354C96.146 64.6619 96.2023 64.587 96.5068 64.8279C99.7222 67.3761 99.4598 67.2162 99.7714 67.3515C99.7601 66.9107 98.9309 63.5087 98.6798 63.1018ZM98.075 60.4009C97.2058 56.8801 97.3104 56.8688 96.9465 57.1127C95.245 58.2525 95.2706 58.1644 95.5115 58.3725C97.9879 60.5055 97.8823 60.484 98.075 60.4009ZM90.5474 59.0182C90.6345 59.2171 90.4921 59.3339 91.9496 58.2515C92.1823 58.0793 92.1003 58.0486 91.1768 57.3618C90.8416 57.1127 90.8693 57.4848 90.5474 59.0182Z" fill="black"/>
<path d="M166.96 45.5326C164.084 41.2758 162.584 43.4949 166.159 40.7981C166.492 40.547 166.38 39.9894 165.839 40.1083C165.646 40.1503 165.53 40.22 163.731 41.12C163.517 41.2276 163.179 41.4746 163.167 41.1661C162.981 36.7699 163.317 35.1596 162.437 35.2795C162.038 35.3338 162.049 35.7438 162.049 36.0155C162.045 40.4865 162.122 40.3635 162.025 40.8196C161.622 40.6023 161.098 40.1267 159.935 39.5794C159.515 39.3816 158.538 39.1192 158.445 39.5486C158.36 39.9453 158.503 39.9627 158.873 40.2036C162.061 42.2782 161.922 42.0455 161.425 42.3459C160.79 42.7292 160.087 43.0685 159.52 43.4016C158.689 43.8895 159.185 44.8889 160.084 44.5322C160.582 44.3354 161.512 43.8372 161.986 43.5923C162.417 43.3688 162.13 46.4582 162.687 47.0803C163.068 46.7206 163.095 43.8249 163.211 43.3145C163.763 43.5185 165.818 45.5254 166.803 45.7899C166.932 45.8247 167.038 45.6453 166.961 45.5316L166.96 45.5326Z" fill="black"/>
<path d="M130.882 68.0642C127.444 69.7114 127.611 69.7514 127.664 69.2819C127.932 66.9029 128.384 65.1655 128.117 64.6643C127.924 64.3004 127.448 64.2635 127.24 64.61C126.941 65.1092 126.558 68.3523 126.379 69.1794C126.253 69.7668 125.301 68.2672 124.02 67.9484C123.564 67.8346 123.148 68.5337 123.864 69.0872C126.233 70.9199 126.117 70.2126 123.791 71.4068C123.215 71.703 122.791 72.1407 123.112 72.7054C123.309 73.0539 123.824 72.7751 124.054 72.6808C126.003 71.8834 126.027 71.8004 126.028 72.0412C126.034 74.0984 125.892 74.6888 126.253 74.7073C126.595 74.7247 126.617 74.4951 127.11 72.5322C127.168 72.3047 127.202 72.072 127.249 71.8424C128.541 72.6767 128.747 73.0847 129.078 72.85C129.359 72.6511 129.114 72.3364 128.564 71.6189C128.113 71.0316 127.876 70.9752 128.178 70.8584C128.444 70.7559 130.136 69.8631 131.388 68.9129C131.636 68.7254 131.667 68.4271 131.482 68.1503C131.328 67.9207 131.212 67.9043 130.881 68.0632L130.882 68.0642Z" fill="black"/>
<path d="M28.9531 27.4773C27.269 28.2358 27.0917 28.5331 27.1194 28.1723C27.2547 26.3795 27.2772 26.3806 27.2291 26.3785C27.2291 25.539 27.3695 24.8174 26.7576 24.7682C26.1569 24.7201 26.0688 25.3176 26.0216 25.9429C25.8443 28.2666 25.9868 28.3137 25.5768 28.1046C25.3318 27.9796 25.4148 27.9406 24.0167 27.3338C23.4817 27.1022 23.1629 27.6341 23.5001 28.0677C23.8025 28.4572 24.0587 28.5741 25.0909 29.2905C25.341 29.4638 25.1545 29.4269 24.5282 29.8338C23.5339 30.4806 23.2152 30.6333 23.0911 31.1704C22.9917 31.5978 23.3341 32.0078 24.029 31.6439C25.7469 30.744 25.7582 30.5328 25.7777 31.1273C25.791 31.5455 25.7551 32.0211 25.9201 32.4742C25.9857 32.6536 26.2574 32.7417 26.4132 32.4988C26.5731 32.2487 26.8519 30.7614 26.8888 30.5574C26.9462 30.2417 27.0046 30.5287 28.5124 31.0043C28.6938 31.0617 28.9541 31.1448 29.0884 30.8813C29.4092 30.252 27.5694 29.6995 28.1116 29.3192C28.8291 28.8149 28.5636 29.1112 30.6269 27.3195C30.7868 27.1811 30.956 26.5794 28.9552 27.4794L28.9531 27.4773Z" fill="black"/>
<path d="M45.924 77.2638C45.676 77.3427 45.5725 77.436 43.5799 78.6373C43.1945 78.87 43.3687 78.8372 43.3062 75.796C43.2857 74.8151 43.2488 74.1765 42.7209 74.1683C42.1141 74.1591 42.2146 74.6173 42.0618 76.4664C42.1233 76.4705 42.1059 76.4664 42.1059 77.5088C42.1059 77.8132 42.1479 78.1043 41.8978 77.9362C40.428 76.945 39.9739 77.762 40.43 78.2407C40.7673 78.5943 41.2685 78.9274 41.9921 79.4214C42.272 79.6121 41.9112 79.6367 41.1926 80.2281C39.9421 81.2562 39.7761 81.3802 39.8058 81.8076C39.8417 82.316 40.3245 82.2382 40.7211 81.985C42.2771 80.9918 42.234 80.7734 42.3273 81.2992C42.521 82.4032 42.5836 82.6789 42.9208 82.7958C43.3851 82.9567 43.4364 82.108 43.4138 82.0291C43.2631 81.5022 43.3749 80.9815 43.3349 80.4629C43.3062 80.0949 44.1631 81.1178 45.6288 81.3566C45.9005 81.4007 45.9876 81.1311 45.5919 80.7652C43.6137 78.9387 43.8341 80.0477 46.2008 77.683C46.4335 77.4514 46.1393 77.1962 45.9251 77.2648L45.924 77.2638Z" fill="black"/>
<path d="M131.589 21.3171C121.598 3.64505 97.4078 -3.6017 78.1911 1.96405C61.9141 6.67905 52.0669 23.3794 53.7387 25.9767C54.0349 26.437 54.0636 26.4318 59.8333 30.1167C63.5469 32.4886 60.8716 26.397 71.1093 17.9387C88.85 3.28118 115.885 11.8266 124.065 28.8355C125.088 30.9623 126.561 29.2239 128.863 27.5122C133.539 24.0364 133.511 24.715 131.59 21.3171H131.589Z" fill="black"/>
<path d="M67.2482 33.2984C66.8843 33.9688 67.1211 34.8205 67.7801 35.2367C69.1895 36.1274 70.5866 37.0325 71.9888 37.9314C74.0572 39.2567 73.8881 35.496 79.6056 30.8927C83.7568 27.5502 88.4933 25.9041 93.5538 26.0004C101.245 26.147 106.813 30.5032 111.509 36.5989C113.634 39.3572 112.505 39.6821 118.727 35.0409C119.215 34.677 119.967 33.8642 119.728 33.3056C111.171 13.2761 80.1816 9.44256 67.2482 33.2964V33.2984Z" fill="black"/>
<path d="M79.5123 40.6529C78.9885 41.437 78.9783 42.4415 79.786 42.9468C86.0487 46.8582 83.9065 46.5179 87.5678 43.6172C91.2834 40.6734 95.8354 41.0875 99.1656 43.486C102.651 45.9962 102.055 47.381 103.996 45.9614C108.292 42.8197 109.035 42.5942 108.207 41.4042C100.52 30.3609 86.9876 29.466 79.5133 40.6529H79.5123Z" fill="black"/>
</svg>
