<svg width="61" height="17" viewBox="0 0 61 17" fill="none" xmlns="http://www.w3.org/2000/svg">
<g clip-path="url(#clip0_2_1780)">
<path d="M0.00796917 0.0115184C3.37439 -0.0104495 6.74083 0.0062461 10.1082 0.00362753C10.1218 1.23207 10.1216 2.46052 10.1073 3.68895C8.26572 3.69952 6.42356 3.69952 4.58081 3.68895C4.56803 4.45432 4.57259 5.21968 4.57808 5.98503C6.27359 5.97362 7.96823 5.98241 9.66376 5.9789C9.67105 6.65548 9.66651 7.33211 9.66285 8.00874C10.0525 7.45508 10.5234 6.95872 11.0609 6.53513C11.9555 5.89532 13.0123 5.49894 14.1207 5.38752C15.2167 5.3269 16.3501 5.3102 17.3904 5.69769C18.7191 6.11422 19.8233 7.07991 20.463 8.26708C20.6359 8.59873 20.7898 8.93931 20.9238 9.28726C21.371 7.87427 22.3876 6.61597 23.7582 5.93406C25.0104 5.33368 26.4533 5.21583 27.7927 5.60454C28.4552 5.80577 29.0228 6.20737 29.4964 6.68891C29.5028 4.4596 29.4992 2.23118 29.4973 0.0018701C30.8397 0.00714239 32.1811 -0.00954443 33.5226 0.0124235C33.4925 3.19159 33.519 6.37166 33.5098 9.55087C33.5153 11.8224 33.5007 14.0947 33.5171 16.3662C32.1958 16.4066 30.8744 16.3829 29.553 16.382C29.5457 16.0261 29.5436 15.6708 29.5466 15.3161L29.5128 15.3645C28.906 16.1316 28.0528 16.7423 27.0562 16.9286C25.7956 17.1326 24.501 16.8833 23.4187 16.2283C21.892 15.3056 20.8764 13.6738 20.6811 11.9568C18.1853 11.9497 15.6894 11.9585 13.1935 11.9515C13.0539 11.9603 12.9024 11.9366 12.7747 12.0016C12.8021 12.3546 12.9115 12.6972 13.0947 13.0041C13.2779 13.3109 13.5303 13.5743 13.8333 13.7748C14.5249 14.2362 15.4603 14.2564 16.2214 13.948C16.5545 13.7775 16.7899 13.4805 17.0281 13.2072C18.3258 13.2239 19.6244 13.2002 20.922 13.2151C20.4055 14.5367 19.4199 15.7274 18.0803 16.3425C16.8374 16.9277 15.3992 17.0525 14.0395 16.8882C12.4389 16.6843 10.9185 15.8592 9.96946 14.5921C9.21319 13.5879 8.81984 12.3726 8.84975 11.1326C8.82604 10.5922 8.93371 10.0596 8.99942 9.52539C7.52564 9.52101 6.05185 9.52453 4.57808 9.52362C4.57259 11.8197 4.57229 14.1161 4.57716 16.4127C3.0541 16.4356 1.53011 16.4127 0.00614405 16.4242C0.000659566 10.9533 0.00126794 5.48241 0.00796917 0.0115184ZM13.8268 8.22224C13.356 8.52366 13.0904 9.0245 12.9179 9.52715C14.347 9.53594 15.7742 9.56495 17.2024 9.52715C17.0619 9.12559 16.9122 8.6994 16.5746 8.40768C15.8445 7.76092 14.6408 7.66249 13.8268 8.22224ZM26.579 8.3927C25.5752 8.6256 24.9327 9.57198 24.8004 10.5139C24.5732 11.535 24.8688 12.7064 25.7129 13.3979C26.5178 14.0701 27.8428 14.0332 28.6149 13.3294C29.3395 12.5983 29.4782 11.5104 29.3458 10.5473C29.2217 9.8927 28.9854 9.19852 28.426 8.76792C27.914 8.36547 27.2141 8.26708 26.579 8.39271V8.3927Z" fill="#312280"/>
<path d="M33.5221 0.0124512C36.6823 0.0229606 39.8419 0.0232477 43.0009 0.0133123C43.0027 1.23472 43.0054 2.45527 42.9991 3.67667C41.1831 3.71975 39.3643 3.68633 37.5465 3.69336C37.5365 4.45963 37.4762 5.23464 37.5903 5.99561C39.3999 5.9833 41.2086 5.99124 43.0182 5.99124C42.9808 7.16344 43.0191 8.33738 42.9963 9.51048C41.1949 9.51752 39.3944 9.514 37.593 9.51225C37.4771 10.1344 37.5492 10.7679 37.5301 11.3962C37.5319 11.8479 37.5018 12.3039 37.5876 12.7521C39.3753 12.7406 41.1639 12.7284 42.9516 12.7547C43.072 13.1 42.9726 13.4928 43.0018 13.8566C43.0374 14.6439 42.9178 15.4453 43.0949 16.2213C43.7419 15.6052 44.304 14.9119 44.941 14.2863C45.4739 13.6317 46.089 13.0473 46.6475 12.4138C47.0143 12.0122 47.4441 11.6581 47.7498 11.2082C47.7057 11.1226 47.6512 11.0423 47.5874 10.9692C46.683 9.99288 45.7778 9.01808 44.8716 8.04477C44.2748 7.35149 43.5822 6.73549 43.0319 6.00703C44.2182 5.96927 45.4073 5.99914 46.5945 5.98948C47.08 5.99999 47.5673 5.964 48.0519 6.00703C48.9197 6.77063 49.595 7.72405 50.4948 8.45954C51.1245 7.75129 51.7879 7.07381 52.4002 6.35148C52.5554 6.19067 52.7078 5.9464 52.9733 5.98858C54.5165 5.99999 56.0605 5.96927 57.6037 6.00527C57.4043 6.3025 57.1727 6.57851 56.9128 6.82864C55.5841 8.27063 54.2263 9.68799 52.925 11.1519C53.3968 11.8575 54.094 12.3971 54.6369 13.0535C55.3944 13.8188 56.1125 14.6185 56.8517 15.4005C57.1474 15.7353 57.4786 16.0437 57.7186 16.4207C56.1691 16.4435 54.6177 16.4198 53.0673 16.4304C52.8857 16.4207 52.6685 16.4602 52.5335 16.3126C51.7779 15.4954 51.0369 14.6615 50.2521 13.8689C49.5731 14.6158 48.8586 15.332 48.2061 16.1017C48.0665 16.2511 47.9287 16.4647 47.6868 16.4277C41.6266 16.4321 35.5657 16.4292 29.5041 16.419C29.4977 16.0675 29.4868 15.7151 29.5123 15.3645L29.5461 15.3162C29.5425 15.6712 29.5446 16.0265 29.5525 16.3821C30.8739 16.3829 32.1953 16.4066 33.5166 16.3662C33.5002 14.0947 33.5148 11.8224 33.5093 9.5509C33.5185 6.37169 33.492 3.19162 33.5221 0.0124512Z" fill="#FF5F00"/>
<path d="M59.6714 14.3031C60.3093 14.1195 61.0923 14.6854 60.991 15.3497C61.1105 16.159 60.0054 16.651 59.353 16.2416C58.5079 15.8593 58.7406 14.4367 59.6714 14.3031ZM59.6824 14.5184C59.3274 14.6212 58.9943 14.9718 59.0445 15.3497C58.9961 15.9613 59.7983 16.3909 60.3348 16.1001C60.9007 15.854 60.9682 14.9876 60.4635 14.6502C60.2345 14.5026 59.948 14.492 59.6824 14.5184V14.5184Z" fill="#FF5F00"/>
<path d="M59.4797 14.6913C59.7635 14.7001 60.0747 14.636 60.3357 14.7731C60.3322 15.1407 60.3492 15.5082 60.3868 15.8741C60.364 15.9233 60.3193 16.0208 60.2964 16.07C60.1468 15.8152 60.0866 15.4988 59.8183 15.3275C59.7535 15.556 59.6978 15.788 59.6349 16.0173C59.3574 15.6324 59.5464 15.1289 59.4797 14.6913ZM59.7544 14.9312C59.7581 15.0314 59.7626 15.1315 59.7672 15.2326C59.8612 15.2247 59.9561 15.2177 60.051 15.2115C60.0628 15.1193 60.0747 15.0279 60.0875 14.9365C59.9752 14.9347 59.8648 14.933 59.7544 14.9312Z" fill="#FF5F00"/>
</g>
<defs>
<clipPath id="clip0_2_1780">
<rect width="61" height="17" fill="white"/>
</clipPath>
</defs>
</svg>
