<svg width="24" height="24" viewBox="0 0 24 24" fill="none" xmlns="http://www.w3.org/2000/svg">
<path fill-rule="evenodd" clip-rule="evenodd" d="M6 19.3594H8.36364V11.5594H6V19.3594ZM19 12.2094C19 11.4944 18.4682 10.9094 17.8182 10.9094H14.0895L14.6509 7.93887L14.6686 7.73087C14.6686 7.46437 14.5682 7.21737 14.4086 7.04187L13.7823 6.35938L9.89409 10.6429C9.67545 10.8769 9.54545 11.2019 9.54545 11.5594V18.0594C9.54545 18.7744 10.0773 19.3594 10.7273 19.3594H16.0455C16.5359 19.3594 16.9555 19.0344 17.1327 18.5664L18.9173 13.9839C18.9705 13.8344 19 13.6784 19 13.5094V12.2679L18.9941 12.2614L19 12.2094Z" fill="#9B9B9B"/>
</svg>
